<svg width="1363" height="163" viewBox="0 0 1363 163" fill="none" xmlns="http://www.w3.org/2000/svg">
<path d="M0 15C0 6.71573 6.71573 0 15 0H37V163H15C6.71573 163 0 156.284 0 148V15Z" fill="#D5BBFB"/>
<rect width="1097" height="163" transform="translate(37)" fill="#F0F0F0"/>
<path d="M102.152 43.9375V61H98.6484V43.9375H102.152ZM107.402 43.9375V46.6914H93.4805V43.9375H107.402ZM114.258 58.1406V52.4922C114.258 52.0859 114.191 51.7383 114.059 51.4492C113.926 51.1523 113.719 50.9219 113.438 50.7578C113.164 50.5938 112.809 50.5117 112.371 50.5117C111.996 50.5117 111.672 50.5781 111.398 50.7109C111.125 50.8359 110.914 51.0195 110.766 51.2617C110.617 51.4961 110.543 51.7734 110.543 52.0938H107.168C107.168 51.5547 107.293 51.043 107.543 50.5586C107.793 50.0742 108.156 49.6484 108.633 49.2812C109.109 48.9062 109.676 48.6133 110.332 48.4023C110.996 48.1914 111.738 48.0859 112.559 48.0859C113.543 48.0859 114.418 48.25 115.184 48.5781C115.949 48.9062 116.551 49.3984 116.988 50.0547C117.434 50.7109 117.656 51.5312 117.656 52.5156V57.9414C117.656 58.6367 117.699 59.207 117.785 59.6523C117.871 60.0898 117.996 60.4727 118.16 60.8008V61H114.75C114.586 60.6562 114.461 60.2266 114.375 59.7109C114.297 59.1875 114.258 58.6641 114.258 58.1406ZM114.703 53.2773L114.727 55.1875H112.84C112.395 55.1875 112.008 55.2383 111.68 55.3398C111.352 55.4414 111.082 55.5859 110.871 55.7734C110.66 55.9531 110.504 56.1641 110.402 56.4062C110.309 56.6484 110.262 56.9141 110.262 57.2031C110.262 57.4922 110.328 57.7539 110.461 57.9883C110.594 58.2148 110.785 58.3945 111.035 58.5273C111.285 58.6523 111.578 58.7148 111.914 58.7148C112.422 58.7148 112.863 58.6133 113.238 58.4102C113.613 58.207 113.902 57.957 114.105 57.6602C114.316 57.3633 114.426 57.082 114.434 56.8164L115.324 58.2461C115.199 58.5664 115.027 58.8984 114.809 59.2422C114.598 59.5859 114.328 59.9102 114 60.2148C113.672 60.5117 113.277 60.7578 112.816 60.9531C112.355 61.1406 111.809 61.2344 111.176 61.2344C110.371 61.2344 109.641 61.0742 108.984 60.7539C108.336 60.4258 107.82 59.9766 107.438 59.4062C107.062 58.8281 106.875 58.1719 106.875 57.4375C106.875 56.7734 107 56.1836 107.25 55.668C107.5 55.1523 107.867 54.7188 108.352 54.3672C108.844 54.0078 109.457 53.7383 110.191 53.5586C110.926 53.3711 111.777 53.2773 112.746 53.2773H114.703ZM123.562 51.0273V61H120.188V48.3203H123.352L123.562 51.0273ZM123.07 54.2148H122.156C122.156 53.2773 122.277 52.4336 122.52 51.6836C122.762 50.9258 123.102 50.2812 123.539 49.75C123.977 49.2109 124.496 48.8008 125.098 48.5195C125.707 48.2305 126.387 48.0859 127.137 48.0859C127.73 48.0859 128.273 48.1719 128.766 48.3438C129.258 48.5156 129.68 48.7891 130.031 49.1641C130.391 49.5391 130.664 50.0352 130.852 50.6523C131.047 51.2695 131.145 52.0234 131.145 52.9141V61H127.746V52.9023C127.746 52.3398 127.668 51.9023 127.512 51.5898C127.355 51.2773 127.125 51.0586 126.82 50.9336C126.523 50.8008 126.156 50.7344 125.719 50.7344C125.266 50.7344 124.871 50.8242 124.535 51.0039C124.207 51.1836 123.934 51.4336 123.715 51.7539C123.504 52.0664 123.344 52.4336 123.234 52.8555C123.125 53.2773 123.07 53.7305 123.07 54.2148ZM141.199 58.2344V43H144.598V61H141.539L141.199 58.2344ZM133.184 54.8125V54.5664C133.184 53.5977 133.293 52.7188 133.512 51.9297C133.73 51.1328 134.051 50.4492 134.473 49.8789C134.895 49.3086 135.414 48.8672 136.031 48.5547C136.648 48.2422 137.352 48.0859 138.141 48.0859C138.883 48.0859 139.531 48.2422 140.086 48.5547C140.648 48.8672 141.125 49.3125 141.516 49.8906C141.914 50.4609 142.234 51.1367 142.477 51.918C142.719 52.6914 142.895 53.5391 143.004 54.4609V55C142.895 55.8828 142.719 56.7031 142.477 57.4609C142.234 58.2188 141.914 58.8828 141.516 59.4531C141.125 60.0156 140.648 60.4531 140.086 60.7656C139.523 61.0781 138.867 61.2344 138.117 61.2344C137.328 61.2344 136.625 61.0742 136.008 60.7539C135.398 60.4336 134.883 59.9844 134.461 59.4062C134.047 58.8281 133.73 58.1484 133.512 57.3672C133.293 56.5859 133.184 55.7344 133.184 54.8125ZM136.559 54.5664V54.8125C136.559 55.3359 136.598 55.8242 136.676 56.2773C136.762 56.7305 136.898 57.1328 137.086 57.4844C137.281 57.8281 137.531 58.0977 137.836 58.293C138.148 58.4805 138.527 58.5742 138.973 58.5742C139.551 58.5742 140.027 58.4453 140.402 58.1875C140.777 57.9219 141.062 57.5586 141.258 57.0977C141.461 56.6367 141.578 56.1055 141.609 55.5039V53.9688C141.586 53.4766 141.516 53.0352 141.398 52.6445C141.289 52.2461 141.125 51.9062 140.906 51.625C140.695 51.3438 140.43 51.125 140.109 50.9688C139.797 50.8125 139.426 50.7344 138.996 50.7344C138.559 50.7344 138.184 50.8359 137.871 51.0391C137.559 51.2344 137.305 51.5039 137.109 51.8477C136.922 52.1914 136.781 52.5977 136.688 53.0664C136.602 53.5273 136.559 54.0273 136.559 54.5664ZM153.07 61.2344C152.086 61.2344 151.203 61.0781 150.422 60.7656C149.641 60.4453 148.977 60.0039 148.43 59.4414C147.891 58.8789 147.477 58.2266 147.188 57.4844C146.898 56.7344 146.754 55.9375 146.754 55.0938V54.625C146.754 53.6641 146.891 52.7852 147.164 51.9883C147.438 51.1914 147.828 50.5 148.336 49.9141C148.852 49.3281 149.477 48.8789 150.211 48.5664C150.945 48.2461 151.773 48.0859 152.695 48.0859C153.594 48.0859 154.391 48.2344 155.086 48.5312C155.781 48.8281 156.363 49.25 156.832 49.7969C157.309 50.3438 157.668 51 157.91 51.7656C158.152 52.5234 158.273 53.3672 158.273 54.2969V55.7031H148.195V53.4531H154.957V53.1953C154.957 52.7266 154.871 52.3086 154.699 51.9414C154.535 51.5664 154.285 51.2695 153.949 51.0508C153.613 50.832 153.184 50.7227 152.66 50.7227C152.215 50.7227 151.832 50.8203 151.512 51.0156C151.191 51.2109 150.93 51.4844 150.727 51.8359C150.531 52.1875 150.383 52.6016 150.281 53.0781C150.188 53.5469 150.141 54.0625 150.141 54.625V55.0938C150.141 55.6016 150.211 56.0703 150.352 56.5C150.5 56.9297 150.707 57.3008 150.973 57.6133C151.246 57.9258 151.574 58.168 151.957 58.3398C152.348 58.5117 152.789 58.5977 153.281 58.5977C153.891 58.5977 154.457 58.4805 154.98 58.2461C155.512 58.0039 155.969 57.6406 156.352 57.1562L157.992 58.9375C157.727 59.3203 157.363 59.6875 156.902 60.0391C156.449 60.3906 155.902 60.6797 155.262 60.9062C154.621 61.125 153.891 61.2344 153.07 61.2344ZM163.57 50.9453V61H160.184V48.3203H163.359L163.57 50.9453ZM163.102 54.2148H162.164C162.164 53.332 162.27 52.5195 162.48 51.7773C162.699 51.0273 163.016 50.3789 163.43 49.832C163.852 49.2773 164.371 48.8477 164.988 48.543C165.605 48.2383 166.32 48.0859 167.133 48.0859C167.695 48.0859 168.211 48.1719 168.68 48.3438C169.148 48.5078 169.551 48.7695 169.887 49.1289C170.23 49.4805 170.496 49.9414 170.684 50.5117C170.871 51.0742 170.965 51.75 170.965 52.5391V61H167.59V52.9141C167.59 52.3359 167.512 51.8906 167.355 51.5781C167.199 51.2656 166.977 51.0469 166.688 50.9219C166.406 50.7969 166.066 50.7344 165.668 50.7344C165.23 50.7344 164.848 50.8242 164.52 51.0039C164.199 51.1836 163.934 51.4336 163.723 51.7539C163.512 52.0664 163.355 52.4336 163.254 52.8555C163.152 53.2773 163.102 53.7305 163.102 54.2148ZM170.648 53.8281L169.441 53.9805C169.441 53.1523 169.543 52.3828 169.746 51.6719C169.957 50.9609 170.266 50.3359 170.672 49.7969C171.086 49.2578 171.598 48.8398 172.207 48.543C172.816 48.2383 173.52 48.0859 174.316 48.0859C174.926 48.0859 175.48 48.1758 175.98 48.3555C176.48 48.5273 176.906 48.8047 177.258 49.1875C177.617 49.5625 177.891 50.0547 178.078 50.6641C178.273 51.2734 178.371 52.0195 178.371 52.9023V61H174.984V52.9023C174.984 52.3164 174.906 51.8711 174.75 51.5664C174.602 51.2539 174.383 51.0391 174.094 50.9219C173.812 50.7969 173.477 50.7344 173.086 50.7344C172.68 50.7344 172.324 50.8164 172.02 50.9805C171.715 51.1367 171.461 51.3555 171.258 51.6367C171.055 51.918 170.902 52.2461 170.801 52.6211C170.699 52.9883 170.648 53.3906 170.648 53.8281Z" fill="#888888"/>
<path d="M109.219 107.422H100.734V101.07H109.219C110.375 101.07 111.312 100.875 112.031 100.484C112.75 100.094 113.273 99.5547 113.602 98.8672C113.945 98.1641 114.117 97.375 114.117 96.5C114.117 95.5625 113.945 94.6953 113.602 93.8984C113.273 93.1016 112.75 92.4609 112.031 91.9766C111.312 91.4766 110.375 91.2266 109.219 91.2266H103.828V119H95.6016V84.875H109.219C111.953 84.875 114.305 85.375 116.273 86.375C118.258 87.375 119.781 88.75 120.844 90.5C121.906 92.2344 122.438 94.2188 122.438 96.4531C122.438 98.6562 121.906 100.578 120.844 102.219C119.781 103.859 118.258 105.141 116.273 106.062C114.305 106.969 111.953 107.422 109.219 107.422ZM134.461 99.9219V119H126.562V93.6406H133.945L134.461 99.9219ZM141.961 93.4531L141.82 100.789C141.508 100.758 141.086 100.719 140.555 100.672C140.023 100.625 139.578 100.602 139.219 100.602C138.297 100.602 137.5 100.711 136.828 100.93C136.172 101.133 135.625 101.445 135.188 101.867C134.766 102.273 134.453 102.789 134.25 103.414C134.062 104.039 133.977 104.766 133.992 105.594L132.562 104.656C132.562 102.953 132.727 101.406 133.055 100.016C133.398 98.6094 133.883 97.3984 134.508 96.3828C135.133 95.3516 135.891 94.5625 136.781 94.0156C137.672 93.4531 138.672 93.1719 139.781 93.1719C140.172 93.1719 140.555 93.1953 140.93 93.2422C141.32 93.2891 141.664 93.3594 141.961 93.4531ZM142.852 106.578V106.086C142.852 104.227 143.117 102.516 143.648 100.953C144.18 99.375 144.961 98.0078 145.992 96.8516C147.023 95.6953 148.297 94.7969 149.812 94.1562C151.328 93.5 153.078 93.1719 155.062 93.1719C157.062 93.1719 158.82 93.5 160.336 94.1562C161.867 94.7969 163.148 95.6953 164.18 96.8516C165.211 98.0078 165.992 99.375 166.523 100.953C167.055 102.516 167.32 104.227 167.32 106.086V106.578C167.32 108.422 167.055 110.133 166.523 111.711C165.992 113.273 165.211 114.641 164.18 115.812C163.148 116.969 161.875 117.867 160.359 118.508C158.844 119.148 157.094 119.469 155.109 119.469C153.125 119.469 151.367 119.148 149.836 118.508C148.305 117.867 147.023 116.969 145.992 115.812C144.961 114.641 144.18 113.273 143.648 111.711C143.117 110.133 142.852 108.422 142.852 106.578ZM150.75 106.086V106.578C150.75 107.531 150.82 108.422 150.961 109.25C151.102 110.078 151.336 110.805 151.664 111.43C151.992 112.039 152.438 112.516 153 112.859C153.562 113.203 154.266 113.375 155.109 113.375C155.938 113.375 156.625 113.203 157.172 112.859C157.734 112.516 158.18 112.039 158.508 111.43C158.836 110.805 159.07 110.078 159.211 109.25C159.352 108.422 159.422 107.531 159.422 106.578V106.086C159.422 105.164 159.352 104.297 159.211 103.484C159.07 102.656 158.836 101.93 158.508 101.305C158.18 100.664 157.734 100.164 157.172 99.8047C156.609 99.4453 155.906 99.2656 155.062 99.2656C154.234 99.2656 153.539 99.4453 152.977 99.8047C152.43 100.164 151.992 100.664 151.664 101.305C151.336 101.93 151.102 102.656 150.961 103.484C150.82 104.297 150.75 105.164 150.75 106.086ZM171.422 93.6406H179.344V119.82C179.344 121.852 178.953 123.562 178.172 124.953C177.391 126.359 176.273 127.422 174.82 128.141C173.367 128.875 171.633 129.242 169.617 129.242C168.945 129.242 168.328 129.211 167.766 129.148C167.188 129.102 166.555 129 165.867 128.844V122.867C166.273 122.93 166.648 122.977 166.992 123.008C167.336 123.055 167.711 123.078 168.117 123.078C168.836 123.078 169.438 122.961 169.922 122.727C170.406 122.492 170.773 122.133 171.023 121.648C171.289 121.164 171.422 120.555 171.422 119.82V93.6406ZM170.836 87.1016C170.836 85.9766 171.242 85.0547 172.055 84.3359C172.867 83.6172 173.922 83.2578 175.219 83.2578C176.516 83.2578 177.57 83.6172 178.383 84.3359C179.195 85.0547 179.602 85.9766 179.602 87.1016C179.602 88.2266 179.195 89.1484 178.383 89.8672C177.57 90.5859 176.516 90.9453 175.219 90.9453C173.922 90.9453 172.867 90.5859 172.055 89.8672C171.242 89.1484 170.836 88.2266 170.836 87.1016ZM196.102 119.469C194.039 119.469 192.195 119.148 190.57 118.508C188.945 117.852 187.57 116.953 186.445 115.812C185.336 114.672 184.484 113.359 183.891 111.875C183.312 110.391 183.023 108.82 183.023 107.164V106.273C183.023 104.414 183.281 102.695 183.797 101.117C184.312 99.5234 185.078 98.1328 186.094 96.9453C187.109 95.7578 188.383 94.8359 189.914 94.1797C191.445 93.5078 193.227 93.1719 195.258 93.1719C197.055 93.1719 198.664 93.4609 200.086 94.0391C201.508 94.6172 202.711 95.4453 203.695 96.5234C204.695 97.6016 205.453 98.9062 205.969 100.438C206.5 101.969 206.766 103.688 206.766 105.594V108.805H186.047V103.859H199.055V103.25C199.07 102.406 198.922 101.688 198.609 101.094C198.312 100.5 197.875 100.047 197.297 99.7344C196.719 99.4219 196.016 99.2656 195.188 99.2656C194.328 99.2656 193.617 99.4531 193.055 99.8281C192.508 100.203 192.078 100.719 191.766 101.375C191.469 102.016 191.258 102.758 191.133 103.602C191.008 104.445 190.945 105.336 190.945 106.273V107.164C190.945 108.102 191.07 108.953 191.32 109.719C191.586 110.484 191.961 111.141 192.445 111.688C192.945 112.219 193.539 112.633 194.227 112.93C194.93 113.227 195.727 113.375 196.617 113.375C197.695 113.375 198.758 113.172 199.805 112.766C200.852 112.359 201.75 111.688 202.5 110.75L206.086 115.016C205.57 115.75 204.836 116.461 203.883 117.148C202.945 117.836 201.82 118.398 200.508 118.836C199.195 119.258 197.727 119.469 196.102 119.469ZM220.688 113.375C221.422 113.375 222.047 113.242 222.562 112.977C223.094 112.695 223.492 112.305 223.758 111.805C224.039 111.289 224.172 110.672 224.156 109.953H231.586C231.602 111.859 231.133 113.531 230.18 114.969C229.242 116.391 227.961 117.5 226.336 118.297C224.727 119.078 222.906 119.469 220.875 119.469C218.891 119.469 217.156 119.148 215.672 118.508C214.188 117.852 212.945 116.945 211.945 115.789C210.961 114.617 210.219 113.25 209.719 111.688C209.234 110.125 208.992 108.43 208.992 106.602V106.062C208.992 104.234 209.234 102.539 209.719 100.977C210.219 99.3984 210.961 98.0312 211.945 96.875C212.945 95.7031 214.18 94.7969 215.648 94.1562C217.133 93.5 218.859 93.1719 220.828 93.1719C222.938 93.1719 224.797 93.5703 226.406 94.3672C228.031 95.1641 229.305 96.3203 230.227 97.8359C231.148 99.3516 231.602 101.188 231.586 103.344H224.156C224.172 102.578 224.055 101.891 223.805 101.281C223.555 100.672 223.164 100.188 222.633 99.8281C222.117 99.4531 221.453 99.2656 220.641 99.2656C219.828 99.2656 219.172 99.4453 218.672 99.8047C218.172 100.164 217.789 100.664 217.523 101.305C217.273 101.93 217.102 102.648 217.008 103.461C216.93 104.273 216.891 105.141 216.891 106.062V106.602C216.891 107.539 216.93 108.422 217.008 109.25C217.102 110.062 217.281 110.781 217.547 111.406C217.812 112.016 218.195 112.5 218.695 112.859C219.195 113.203 219.859 113.375 220.688 113.375ZM248.32 93.6406V99.125H233.039V93.6406H248.32ZM236.25 87.3359H244.148V110.727C244.148 111.398 244.227 111.922 244.383 112.297C244.539 112.656 244.805 112.914 245.18 113.07C245.57 113.211 246.086 113.281 246.727 113.281C247.18 113.281 247.555 113.273 247.852 113.258C248.148 113.227 248.43 113.188 248.695 113.141V118.789C248.023 119.008 247.32 119.172 246.586 119.281C245.852 119.406 245.07 119.469 244.242 119.469C242.555 119.469 241.109 119.203 239.906 118.672C238.719 118.141 237.812 117.305 237.188 116.164C236.562 115.023 236.25 113.539 236.25 111.711V87.3359ZM292.664 101.258V102.641C292.664 105.25 292.297 107.594 291.562 109.672C290.844 111.734 289.82 113.5 288.492 114.969C287.164 116.422 285.594 117.539 283.781 118.32C281.969 119.086 279.969 119.469 277.781 119.469C275.578 119.469 273.562 119.086 271.734 118.32C269.922 117.539 268.344 116.422 267 114.969C265.672 113.5 264.641 111.734 263.906 109.672C263.188 107.594 262.828 105.25 262.828 102.641V101.258C262.828 98.6484 263.188 96.3047 263.906 94.2266C264.641 92.1484 265.664 90.3828 266.977 88.9297C268.305 87.4609 269.875 86.3438 271.688 85.5781C273.516 84.7969 275.531 84.4062 277.734 84.4062C279.922 84.4062 281.922 84.7969 283.734 85.5781C285.562 86.3438 287.141 87.4609 288.469 88.9297C289.797 90.3828 290.828 92.1484 291.562 94.2266C292.297 96.3047 292.664 98.6484 292.664 101.258ZM284.32 102.641V101.211C284.32 99.5234 284.172 98.0391 283.875 96.7578C283.594 95.4609 283.172 94.375 282.609 93.5C282.047 92.625 281.352 91.9688 280.523 91.5312C279.711 91.0781 278.781 90.8516 277.734 90.8516C276.641 90.8516 275.688 91.0781 274.875 91.5312C274.062 91.9688 273.383 92.625 272.836 93.5C272.289 94.375 271.875 95.4609 271.594 96.7578C271.328 98.0391 271.195 99.5234 271.195 101.211V102.641C271.195 104.312 271.328 105.797 271.594 107.094C271.875 108.375 272.289 109.461 272.836 110.352C273.398 111.242 274.086 111.914 274.898 112.367C275.727 112.82 276.688 113.047 277.781 113.047C278.828 113.047 279.758 112.82 280.57 112.367C281.383 111.914 282.062 111.242 282.609 110.352C283.172 109.461 283.594 108.375 283.875 107.094C284.172 105.797 284.32 104.312 284.32 102.641ZM305.695 113.586L310.688 93.6406H319.008L310.711 119H305.789L305.695 113.586ZM302.742 93.6406L307.664 113.586L307.617 119H302.672L294.398 93.6406H302.742ZM333.305 119.469C331.242 119.469 329.398 119.148 327.773 118.508C326.148 117.852 324.773 116.953 323.648 115.812C322.539 114.672 321.688 113.359 321.094 111.875C320.516 110.391 320.227 108.82 320.227 107.164V106.273C320.227 104.414 320.484 102.695 321 101.117C321.516 99.5234 322.281 98.1328 323.297 96.9453C324.312 95.7578 325.586 94.8359 327.117 94.1797C328.648 93.5078 330.43 93.1719 332.461 93.1719C334.258 93.1719 335.867 93.4609 337.289 94.0391C338.711 94.6172 339.914 95.4453 340.898 96.5234C341.898 97.6016 342.656 98.9062 343.172 100.438C343.703 101.969 343.969 103.688 343.969 105.594V108.805H323.25V103.859H336.258V103.25C336.273 102.406 336.125 101.688 335.812 101.094C335.516 100.5 335.078 100.047 334.5 99.7344C333.922 99.4219 333.219 99.2656 332.391 99.2656C331.531 99.2656 330.82 99.4531 330.258 99.8281C329.711 100.203 329.281 100.719 328.969 101.375C328.672 102.016 328.461 102.758 328.336 103.602C328.211 104.445 328.148 105.336 328.148 106.273V107.164C328.148 108.102 328.273 108.953 328.523 109.719C328.789 110.484 329.164 111.141 329.648 111.688C330.148 112.219 330.742 112.633 331.43 112.93C332.133 113.227 332.93 113.375 333.82 113.375C334.898 113.375 335.961 113.172 337.008 112.766C338.055 112.359 338.953 111.688 339.703 110.75L343.289 115.016C342.773 115.75 342.039 116.461 341.086 117.148C340.148 117.836 339.023 118.398 337.711 118.836C336.398 119.258 334.93 119.469 333.305 119.469ZM355.148 99.9219V119H347.25V93.6406H354.633L355.148 99.9219ZM362.648 93.4531L362.508 100.789C362.195 100.758 361.773 100.719 361.242 100.672C360.711 100.625 360.266 100.602 359.906 100.602C358.984 100.602 358.188 100.711 357.516 100.93C356.859 101.133 356.312 101.445 355.875 101.867C355.453 102.273 355.141 102.789 354.938 103.414C354.75 104.039 354.664 104.766 354.68 105.594L353.25 104.656C353.25 102.953 353.414 101.406 353.742 100.016C354.086 98.6094 354.57 97.3984 355.195 96.3828C355.82 95.3516 356.578 94.5625 357.469 94.0156C358.359 93.4531 359.359 93.1719 360.469 93.1719C360.859 93.1719 361.242 93.1953 361.617 93.2422C362.008 93.2891 362.352 93.3594 362.648 93.4531ZM374.93 113.586L379.922 93.6406H388.242L379.945 119H375.023L374.93 113.586ZM371.977 93.6406L376.898 113.586L376.852 119H371.906L363.633 93.6406H371.977ZM398.93 93.6406V119H391.008V93.6406H398.93ZM390.539 87.1016C390.539 85.9766 390.945 85.0547 391.758 84.3359C392.57 83.6172 393.625 83.2578 394.922 83.2578C396.219 83.2578 397.273 83.6172 398.086 84.3359C398.898 85.0547 399.305 85.9766 399.305 87.1016C399.305 88.2266 398.898 89.1484 398.086 89.8672C397.273 90.5859 396.219 90.9453 394.922 90.9453C393.625 90.9453 392.57 90.5859 391.758 89.8672C390.945 89.1484 390.539 88.2266 390.539 87.1016ZM416.086 119.469C414.023 119.469 412.18 119.148 410.555 118.508C408.93 117.852 407.555 116.953 406.43 115.812C405.32 114.672 404.469 113.359 403.875 111.875C403.297 110.391 403.008 108.82 403.008 107.164V106.273C403.008 104.414 403.266 102.695 403.781 101.117C404.297 99.5234 405.062 98.1328 406.078 96.9453C407.094 95.7578 408.367 94.8359 409.898 94.1797C411.43 93.5078 413.211 93.1719 415.242 93.1719C417.039 93.1719 418.648 93.4609 420.07 94.0391C421.492 94.6172 422.695 95.4453 423.68 96.5234C424.68 97.6016 425.438 98.9062 425.953 100.438C426.484 101.969 426.75 103.688 426.75 105.594V108.805H406.031V103.859H419.039V103.25C419.055 102.406 418.906 101.688 418.594 101.094C418.297 100.5 417.859 100.047 417.281 99.7344C416.703 99.4219 416 99.2656 415.172 99.2656C414.312 99.2656 413.602 99.4531 413.039 99.8281C412.492 100.203 412.062 100.719 411.75 101.375C411.453 102.016 411.242 102.758 411.117 103.602C410.992 104.445 410.93 105.336 410.93 106.273V107.164C410.93 108.102 411.055 108.953 411.305 109.719C411.57 110.484 411.945 111.141 412.43 111.688C412.93 112.219 413.523 112.633 414.211 112.93C414.914 113.227 415.711 113.375 416.602 113.375C417.68 113.375 418.742 113.172 419.789 112.766C420.836 112.359 421.734 111.688 422.484 110.75L426.07 115.016C425.555 115.75 424.82 116.461 423.867 117.148C422.93 117.836 421.805 118.398 420.492 118.836C419.18 119.258 417.711 119.469 416.086 119.469ZM437.672 111.453L442.359 93.6406H447.305L445.547 102.57L440.906 119H436.945L437.672 111.453ZM435.82 93.6406L438.727 111.312L439.055 119H434.25L428.25 93.6406H435.82ZM451.477 110.938L454.406 93.6406H461.977L456.023 119H451.219L451.477 110.938ZM447.867 93.6406L452.602 111.406L453.328 119H449.32L444.773 102.617L443.086 93.6406H447.867Z" fill="black"/>
<path d="M1134 0H1348C1356.28 0 1363 6.71573 1363 15V148C1363 156.284 1356.28 163 1348 163H1134V0Z" fill="#52379E"/>
<path d="M1234.26 103.786H1262.74V109.357H1234.26V103.786ZM1239.96 114.929H1257.04V120.5H1239.96V114.929ZM1248.5 42.5C1240.95 42.5 1233.71 45.4349 1228.37 50.6592C1223.03 55.8834 1220.03 62.969 1220.03 70.3571C1219.84 74.4057 1220.63 78.4412 1222.34 82.1315C1224.05 85.8219 1226.64 89.0616 1229.88 91.5843C1232.73 94.175 1234.26 95.6514 1234.26 98.2143H1239.96C1239.96 93.0886 1236.8 90.2193 1233.72 87.4614C1231.06 85.4676 1228.94 82.8658 1227.55 79.8838C1226.15 76.9019 1225.53 73.6308 1225.72 70.3571C1225.72 64.4466 1228.12 58.7781 1232.39 54.5988C1236.67 50.4194 1242.46 48.0714 1248.5 48.0714C1254.54 48.0714 1260.33 50.4194 1264.61 54.5988C1268.88 58.7781 1271.28 64.4466 1271.28 70.3571C1271.47 73.6333 1270.84 76.9059 1269.44 79.888C1268.04 82.8701 1265.92 85.4706 1263.25 87.4614C1260.2 90.2471 1257.04 93.0329 1257.04 98.2143H1262.74C1262.74 95.6514 1264.25 94.175 1267.12 91.5564C1270.36 89.0381 1272.94 85.8031 1274.66 82.1176C1276.37 78.4321 1277.16 74.4014 1276.97 70.3571C1276.97 66.6989 1276.24 63.0765 1274.81 59.6967C1273.37 56.3169 1271.28 53.2459 1268.63 50.6592C1265.99 48.0724 1262.85 46.0205 1259.4 44.6205C1255.94 43.2205 1252.24 42.5 1248.5 42.5Z" fill="white"/>
</svg>
