<svg width="1363" height="297" viewBox="0 0 1363 297" fill="none" xmlns="http://www.w3.org/2000/svg">
<path d="M0 15C0 6.71573 6.71573 0 15 0H37V297H15C6.71573 297 0 290.284 0 282V15Z" fill="#52379E"/>
<path d="M37 0H1066V297H37V0Z" fill="#F0F0F0"/>
<path d="M116.309 61.6055V62.8184C116.309 64.7637 116.045 66.5098 115.518 68.0566C114.99 69.6035 114.246 70.9219 113.285 72.0117C112.324 73.0898 111.176 73.916 109.84 74.4902C108.516 75.0645 107.045 75.3516 105.428 75.3516C103.822 75.3516 102.352 75.0645 101.016 74.4902C99.6914 73.916 98.543 73.0898 97.5703 72.0117C96.5977 70.9219 95.8418 69.6035 95.3027 68.0566C94.7754 66.5098 94.5117 64.7637 94.5117 62.8184V61.6055C94.5117 59.6484 94.7754 57.9023 95.3027 56.3672C95.8301 54.8203 96.5742 53.502 97.5352 52.4121C98.5078 51.3223 99.6562 50.4902 100.98 49.916C102.316 49.3418 103.787 49.0547 105.393 49.0547C107.01 49.0547 108.48 49.3418 109.805 49.916C111.141 50.4902 112.289 51.3223 113.25 52.4121C114.223 53.502 114.973 54.8203 115.5 56.3672C116.039 57.9023 116.309 59.6484 116.309 61.6055ZM110.982 62.8184V61.5703C110.982 60.2109 110.859 59.0156 110.613 57.9844C110.367 56.9531 110.004 56.0859 109.523 55.3828C109.043 54.6797 108.457 54.1523 107.766 53.8008C107.074 53.4375 106.283 53.2559 105.393 53.2559C104.502 53.2559 103.711 53.4375 103.02 53.8008C102.34 54.1523 101.76 54.6797 101.279 55.3828C100.811 56.0859 100.453 56.9531 100.207 57.9844C99.9609 59.0156 99.8379 60.2109 99.8379 61.5703V62.8184C99.8379 64.166 99.9609 65.3613 100.207 66.4043C100.453 67.4355 100.816 68.3086 101.297 69.0234C101.777 69.7266 102.363 70.2598 103.055 70.623C103.746 70.9863 104.537 71.168 105.428 71.168C106.318 71.168 107.109 70.9863 107.801 70.623C108.492 70.2598 109.072 69.7266 109.541 69.0234C110.01 68.3086 110.367 67.4355 110.613 66.4043C110.859 65.3613 110.982 64.166 110.982 62.8184ZM124.852 59.918V75H119.771V55.9805H124.535L124.852 59.918ZM124.148 64.8223H122.742C122.742 63.498 122.9 62.2793 123.217 61.166C123.545 60.041 124.02 59.0684 124.641 58.248C125.273 57.416 126.053 56.7715 126.979 56.3145C127.904 55.8574 128.977 55.6289 130.195 55.6289C131.039 55.6289 131.812 55.7578 132.516 56.0156C133.219 56.2617 133.822 56.6543 134.326 57.1934C134.842 57.7207 135.24 58.4121 135.521 59.2676C135.803 60.1113 135.943 61.125 135.943 62.3086V75H130.881V62.8711C130.881 62.0039 130.764 61.3359 130.529 60.8672C130.295 60.3984 129.961 60.0703 129.527 59.8828C129.105 59.6953 128.596 59.6016 127.998 59.6016C127.342 59.6016 126.768 59.7363 126.275 60.0059C125.795 60.2754 125.396 60.6504 125.08 61.1309C124.764 61.5996 124.529 62.1504 124.377 62.7832C124.225 63.416 124.148 64.0957 124.148 64.8223ZM135.469 64.2422L133.658 64.4707C133.658 63.2285 133.811 62.0742 134.115 61.0078C134.432 59.9414 134.895 59.0039 135.504 58.1953C136.125 57.3867 136.893 56.7598 137.807 56.3145C138.721 55.8574 139.775 55.6289 140.971 55.6289C141.885 55.6289 142.717 55.7637 143.467 56.0332C144.217 56.291 144.855 56.707 145.383 57.2812C145.922 57.8438 146.332 58.582 146.613 59.4961C146.906 60.4102 147.053 61.5293 147.053 62.8535V75H141.973V62.8535C141.973 61.9746 141.855 61.3066 141.621 60.8496C141.398 60.3809 141.07 60.0586 140.637 59.8828C140.215 59.6953 139.711 59.6016 139.125 59.6016C138.516 59.6016 137.982 59.7246 137.525 59.9707C137.068 60.2051 136.688 60.5332 136.383 60.9551C136.078 61.377 135.85 61.8691 135.697 62.4316C135.545 62.9824 135.469 63.5859 135.469 64.2422ZM161.238 70.7109V62.2383C161.238 61.6289 161.139 61.1074 160.939 60.6738C160.74 60.2285 160.43 59.8828 160.008 59.6367C159.598 59.3906 159.064 59.2676 158.408 59.2676C157.846 59.2676 157.359 59.3672 156.949 59.5664C156.539 59.7539 156.223 60.0293 156 60.3926C155.777 60.7441 155.666 61.1602 155.666 61.6406H150.604C150.604 60.832 150.791 60.0645 151.166 59.3379C151.541 58.6113 152.086 57.9727 152.801 57.4219C153.516 56.8594 154.365 56.4199 155.35 56.1035C156.346 55.7871 157.459 55.6289 158.689 55.6289C160.166 55.6289 161.479 55.875 162.627 56.3672C163.775 56.8594 164.678 57.5977 165.334 58.582C166.002 59.5664 166.336 60.7969 166.336 62.2734V70.4121C166.336 71.4551 166.4 72.3105 166.529 72.9785C166.658 73.6348 166.846 74.209 167.092 74.7012V75H161.977C161.73 74.4844 161.543 73.8398 161.414 73.0664C161.297 72.2812 161.238 71.4961 161.238 70.7109ZM161.906 63.416L161.941 66.2812H159.111C158.443 66.2812 157.863 66.3574 157.371 66.5098C156.879 66.6621 156.475 66.8789 156.158 67.1602C155.842 67.4297 155.607 67.7461 155.455 68.1094C155.314 68.4727 155.244 68.8711 155.244 69.3047C155.244 69.7383 155.344 70.1309 155.543 70.4824C155.742 70.8223 156.029 71.0918 156.404 71.291C156.779 71.4785 157.219 71.5723 157.723 71.5723C158.484 71.5723 159.146 71.4199 159.709 71.1152C160.271 70.8105 160.705 70.4355 161.01 69.9902C161.326 69.5449 161.49 69.123 161.502 68.7246L162.838 70.8691C162.65 71.3496 162.393 71.8477 162.064 72.3633C161.748 72.8789 161.344 73.3652 160.852 73.8223C160.359 74.2676 159.768 74.6367 159.076 74.9297C158.385 75.2109 157.564 75.3516 156.615 75.3516C155.408 75.3516 154.312 75.1113 153.328 74.6309C152.355 74.1387 151.582 73.4648 151.008 72.6094C150.445 71.7422 150.164 70.7578 150.164 69.6562C150.164 68.6602 150.352 67.7754 150.727 67.002C151.102 66.2285 151.652 65.5781 152.379 65.0508C153.117 64.5117 154.037 64.1074 155.139 63.8379C156.24 63.5566 157.518 63.416 158.971 63.416H161.906ZM175.301 60.1289V75H170.238V55.9805H175.002L175.301 60.1289ZM181.031 55.8574L180.943 60.5508C180.697 60.5156 180.398 60.4863 180.047 60.4629C179.707 60.4277 179.396 60.4102 179.115 60.4102C178.4 60.4102 177.779 60.5039 177.252 60.6914C176.736 60.8672 176.303 61.1309 175.951 61.4824C175.611 61.834 175.354 62.2617 175.178 62.7656C175.014 63.2695 174.92 63.8438 174.896 64.4883L173.877 64.1719C173.877 62.9414 174 61.8105 174.246 60.7793C174.492 59.7363 174.85 58.8281 175.318 58.0547C175.799 57.2812 176.385 56.6836 177.076 56.2617C177.768 55.8398 178.559 55.6289 179.449 55.6289C179.73 55.6289 180.018 55.6523 180.311 55.6992C180.604 55.7344 180.844 55.7871 181.031 55.8574ZM195.111 49.4062H199.576L206.15 68.1973L212.725 49.4062H217.189L207.943 75H204.357L195.111 49.4062ZM192.703 49.4062H197.15L197.959 67.7227V75H192.703V49.4062ZM215.15 49.4062H219.615V75H214.342V67.7227L215.15 49.4062ZM223.113 65.6836V65.3145C223.113 63.9199 223.312 62.6367 223.711 61.4648C224.109 60.2812 224.689 59.2559 225.451 58.3887C226.213 57.5215 227.15 56.8477 228.264 56.3672C229.377 55.875 230.654 55.6289 232.096 55.6289C233.537 55.6289 234.82 55.875 235.945 56.3672C237.07 56.8477 238.014 57.5215 238.775 58.3887C239.549 59.2559 240.135 60.2812 240.533 61.4648C240.932 62.6367 241.131 63.9199 241.131 65.3145V65.6836C241.131 67.0664 240.932 68.3496 240.533 69.5332C240.135 70.7051 239.549 71.7305 238.775 72.6094C238.014 73.4766 237.076 74.1504 235.963 74.6309C234.85 75.1113 233.572 75.3516 232.131 75.3516C230.689 75.3516 229.406 75.1113 228.281 74.6309C227.168 74.1504 226.225 73.4766 225.451 72.6094C224.689 71.7305 224.109 70.7051 223.711 69.5332C223.312 68.3496 223.113 67.0664 223.113 65.6836ZM228.176 65.3145V65.6836C228.176 66.4805 228.246 67.2246 228.387 67.916C228.527 68.6074 228.75 69.2168 229.055 69.7441C229.371 70.2598 229.781 70.6641 230.285 70.957C230.789 71.25 231.404 71.3965 232.131 71.3965C232.834 71.3965 233.438 71.25 233.941 70.957C234.445 70.6641 234.85 70.2598 235.154 69.7441C235.459 69.2168 235.682 68.6074 235.822 67.916C235.975 67.2246 236.051 66.4805 236.051 65.6836V65.3145C236.051 64.541 235.975 63.8145 235.822 63.1348C235.682 62.4434 235.453 61.834 235.137 61.3066C234.832 60.7676 234.428 60.3457 233.924 60.041C233.42 59.7363 232.811 59.584 232.096 59.584C231.381 59.584 230.771 59.7363 230.268 60.041C229.775 60.3457 229.371 60.7676 229.055 61.3066C228.75 61.834 228.527 62.4434 228.387 63.1348C228.246 63.8145 228.176 64.541 228.176 65.3145ZM249.182 48V75H244.119V48H249.182ZM248.461 64.8223H247.072C247.084 63.498 247.26 62.2793 247.6 61.166C247.939 60.041 248.426 59.0684 249.059 58.248C249.691 57.416 250.447 56.7715 251.326 56.3145C252.217 55.8574 253.201 55.6289 254.279 55.6289C255.217 55.6289 256.066 55.7637 256.828 56.0332C257.602 56.291 258.264 56.7129 258.814 57.2988C259.377 57.873 259.811 58.6289 260.115 59.5664C260.42 60.5039 260.572 61.6406 260.572 62.9766V75H255.475V62.9414C255.475 62.0977 255.352 61.4355 255.105 60.9551C254.871 60.4629 254.525 60.1172 254.068 59.918C253.623 59.707 253.072 59.6016 252.416 59.6016C251.689 59.6016 251.068 59.7363 250.553 60.0059C250.049 60.2754 249.645 60.6504 249.34 61.1309C249.035 61.5996 248.812 62.1504 248.672 62.7832C248.531 63.416 248.461 64.0957 248.461 64.8223ZM274.688 70.7109V62.2383C274.688 61.6289 274.588 61.1074 274.389 60.6738C274.189 60.2285 273.879 59.8828 273.457 59.6367C273.047 59.3906 272.514 59.2676 271.857 59.2676C271.295 59.2676 270.809 59.3672 270.398 59.5664C269.988 59.7539 269.672 60.0293 269.449 60.3926C269.227 60.7441 269.115 61.1602 269.115 61.6406H264.053C264.053 60.832 264.24 60.0645 264.615 59.3379C264.99 58.6113 265.535 57.9727 266.25 57.4219C266.965 56.8594 267.814 56.4199 268.799 56.1035C269.795 55.7871 270.908 55.6289 272.139 55.6289C273.615 55.6289 274.928 55.875 276.076 56.3672C277.225 56.8594 278.127 57.5977 278.783 58.582C279.451 59.5664 279.785 60.7969 279.785 62.2734V70.4121C279.785 71.4551 279.85 72.3105 279.979 72.9785C280.107 73.6348 280.295 74.209 280.541 74.7012V75H275.426C275.18 74.4844 274.992 73.8398 274.863 73.0664C274.746 72.2812 274.688 71.4961 274.688 70.7109ZM275.355 63.416L275.391 66.2812H272.561C271.893 66.2812 271.312 66.3574 270.82 66.5098C270.328 66.6621 269.924 66.8789 269.607 67.1602C269.291 67.4297 269.057 67.7461 268.904 68.1094C268.764 68.4727 268.693 68.8711 268.693 69.3047C268.693 69.7383 268.793 70.1309 268.992 70.4824C269.191 70.8223 269.479 71.0918 269.854 71.291C270.229 71.4785 270.668 71.5723 271.172 71.5723C271.934 71.5723 272.596 71.4199 273.158 71.1152C273.721 70.8105 274.154 70.4355 274.459 69.9902C274.775 69.5449 274.939 69.123 274.951 68.7246L276.287 70.8691C276.1 71.3496 275.842 71.8477 275.514 72.3633C275.197 72.8789 274.793 73.3652 274.301 73.8223C273.809 74.2676 273.217 74.6367 272.525 74.9297C271.834 75.2109 271.014 75.3516 270.064 75.3516C268.857 75.3516 267.762 75.1113 266.777 74.6309C265.805 74.1387 265.031 73.4648 264.457 72.6094C263.895 71.7422 263.613 70.7578 263.613 69.6562C263.613 68.6602 263.801 67.7754 264.176 67.002C264.551 66.2285 265.102 65.5781 265.828 65.0508C266.566 64.5117 267.486 64.1074 268.588 63.8379C269.689 63.5566 270.967 63.416 272.42 63.416H275.355ZM288.75 59.918V75H283.67V55.9805H288.434L288.75 59.918ZM288.047 64.8223H286.641C286.641 63.498 286.799 62.2793 287.115 61.166C287.443 60.041 287.918 59.0684 288.539 58.248C289.172 57.416 289.951 56.7715 290.877 56.3145C291.803 55.8574 292.875 55.6289 294.094 55.6289C294.938 55.6289 295.711 55.7578 296.414 56.0156C297.117 56.2617 297.721 56.6543 298.225 57.1934C298.74 57.7207 299.139 58.4121 299.42 59.2676C299.701 60.1113 299.842 61.125 299.842 62.3086V75H294.779V62.8711C294.779 62.0039 294.662 61.3359 294.428 60.8672C294.193 60.3984 293.859 60.0703 293.426 59.8828C293.004 59.6953 292.494 59.6016 291.896 59.6016C291.24 59.6016 290.666 59.7363 290.174 60.0059C289.693 60.2754 289.295 60.6504 288.979 61.1309C288.662 61.5996 288.428 62.1504 288.275 62.7832C288.123 63.416 288.047 64.0957 288.047 64.8223ZM299.367 64.2422L297.557 64.4707C297.557 63.2285 297.709 62.0742 298.014 61.0078C298.33 59.9414 298.793 59.0039 299.402 58.1953C300.023 57.3867 300.791 56.7598 301.705 56.3145C302.619 55.8574 303.674 55.6289 304.869 55.6289C305.783 55.6289 306.615 55.7637 307.365 56.0332C308.115 56.291 308.754 56.707 309.281 57.2812C309.82 57.8438 310.23 58.582 310.512 59.4961C310.805 60.4102 310.951 61.5293 310.951 62.8535V75H305.871V62.8535C305.871 61.9746 305.754 61.3066 305.52 60.8496C305.297 60.3809 304.969 60.0586 304.535 59.8828C304.113 59.6953 303.609 59.6016 303.023 59.6016C302.414 59.6016 301.881 59.7246 301.424 59.9707C300.967 60.2051 300.586 60.5332 300.281 60.9551C299.977 61.377 299.748 61.8691 299.596 62.4316C299.443 62.9824 299.367 63.5859 299.367 64.2422ZM319.934 59.918V75H314.854V55.9805H319.617L319.934 59.918ZM319.23 64.8223H317.824C317.824 63.498 317.982 62.2793 318.299 61.166C318.627 60.041 319.102 59.0684 319.723 58.248C320.355 57.416 321.135 56.7715 322.061 56.3145C322.986 55.8574 324.059 55.6289 325.277 55.6289C326.121 55.6289 326.895 55.7578 327.598 56.0156C328.301 56.2617 328.904 56.6543 329.408 57.1934C329.924 57.7207 330.322 58.4121 330.604 59.2676C330.885 60.1113 331.025 61.125 331.025 62.3086V75H325.963V62.8711C325.963 62.0039 325.846 61.3359 325.611 60.8672C325.377 60.3984 325.043 60.0703 324.609 59.8828C324.188 59.6953 323.678 59.6016 323.08 59.6016C322.424 59.6016 321.85 59.7363 321.357 60.0059C320.877 60.2754 320.479 60.6504 320.162 61.1309C319.846 61.5996 319.611 62.1504 319.459 62.7832C319.307 63.416 319.23 64.0957 319.23 64.8223ZM330.551 64.2422L328.74 64.4707C328.74 63.2285 328.893 62.0742 329.197 61.0078C329.514 59.9414 329.977 59.0039 330.586 58.1953C331.207 57.3867 331.975 56.7598 332.889 56.3145C333.803 55.8574 334.857 55.6289 336.053 55.6289C336.967 55.6289 337.799 55.7637 338.549 56.0332C339.299 56.291 339.938 56.707 340.465 57.2812C341.004 57.8438 341.414 58.582 341.695 59.4961C341.988 60.4102 342.135 61.5293 342.135 62.8535V75H337.055V62.8535C337.055 61.9746 336.938 61.3066 336.703 60.8496C336.48 60.3809 336.152 60.0586 335.719 59.8828C335.297 59.6953 334.793 59.6016 334.207 59.6016C333.598 59.6016 333.064 59.7246 332.607 59.9707C332.15 60.2051 331.77 60.5332 331.465 60.9551C331.16 61.377 330.932 61.8691 330.779 62.4316C330.627 62.9824 330.551 63.5859 330.551 64.2422ZM356.32 70.7109V62.2383C356.32 61.6289 356.221 61.1074 356.021 60.6738C355.822 60.2285 355.512 59.8828 355.09 59.6367C354.68 59.3906 354.146 59.2676 353.49 59.2676C352.928 59.2676 352.441 59.3672 352.031 59.5664C351.621 59.7539 351.305 60.0293 351.082 60.3926C350.859 60.7441 350.748 61.1602 350.748 61.6406H345.686C345.686 60.832 345.873 60.0645 346.248 59.3379C346.623 58.6113 347.168 57.9727 347.883 57.4219C348.598 56.8594 349.447 56.4199 350.432 56.1035C351.428 55.7871 352.541 55.6289 353.771 55.6289C355.248 55.6289 356.561 55.875 357.709 56.3672C358.857 56.8594 359.76 57.5977 360.416 58.582C361.084 59.5664 361.418 60.7969 361.418 62.2734V70.4121C361.418 71.4551 361.482 72.3105 361.611 72.9785C361.74 73.6348 361.928 74.209 362.174 74.7012V75H357.059C356.812 74.4844 356.625 73.8398 356.496 73.0664C356.379 72.2812 356.32 71.4961 356.32 70.7109ZM356.988 63.416L357.023 66.2812H354.193C353.525 66.2812 352.945 66.3574 352.453 66.5098C351.961 66.6621 351.557 66.8789 351.24 67.1602C350.924 67.4297 350.689 67.7461 350.537 68.1094C350.396 68.4727 350.326 68.8711 350.326 69.3047C350.326 69.7383 350.426 70.1309 350.625 70.4824C350.824 70.8223 351.111 71.0918 351.486 71.291C351.861 71.4785 352.301 71.5723 352.805 71.5723C353.566 71.5723 354.229 71.4199 354.791 71.1152C355.354 70.8105 355.787 70.4355 356.092 69.9902C356.408 69.5449 356.572 69.123 356.584 68.7246L357.92 70.8691C357.732 71.3496 357.475 71.8477 357.146 72.3633C356.83 72.8789 356.426 73.3652 355.934 73.8223C355.441 74.2676 354.85 74.6367 354.158 74.9297C353.467 75.2109 352.646 75.3516 351.697 75.3516C350.49 75.3516 349.395 75.1113 348.41 74.6309C347.438 74.1387 346.664 73.4648 346.09 72.6094C345.527 71.7422 345.246 70.7578 345.246 69.6562C345.246 68.6602 345.434 67.7754 345.809 67.002C346.184 66.2285 346.734 65.5781 347.461 65.0508C348.199 64.5117 349.119 64.1074 350.221 63.8379C351.322 63.5566 352.6 63.416 354.053 63.416H356.988ZM376.553 70.8516V48H381.65V75H377.062L376.553 70.8516ZM364.529 65.7188V65.3496C364.529 63.8965 364.693 62.5781 365.021 61.3945C365.35 60.1992 365.83 59.1738 366.463 58.3184C367.096 57.4629 367.875 56.8008 368.801 56.332C369.727 55.8633 370.781 55.6289 371.965 55.6289C373.078 55.6289 374.051 55.8633 374.883 56.332C375.727 56.8008 376.441 57.4688 377.027 58.3359C377.625 59.1914 378.105 60.2051 378.469 61.377C378.832 62.5371 379.096 63.8086 379.26 65.1914V66C379.096 67.3242 378.832 68.5547 378.469 69.6914C378.105 70.8281 377.625 71.8242 377.027 72.6797C376.441 73.5234 375.727 74.1797 374.883 74.6484C374.039 75.1172 373.055 75.3516 371.93 75.3516C370.746 75.3516 369.691 75.1113 368.766 74.6309C367.852 74.1504 367.078 73.4766 366.445 72.6094C365.824 71.7422 365.35 70.7227 365.021 69.5508C364.693 68.3789 364.529 67.1016 364.529 65.7188ZM369.592 65.3496V65.7188C369.592 66.5039 369.65 67.2363 369.768 67.916C369.896 68.5957 370.102 69.1992 370.383 69.7266C370.676 70.2422 371.051 70.6465 371.508 70.9395C371.977 71.2207 372.545 71.3613 373.213 71.3613C374.08 71.3613 374.795 71.168 375.357 70.7812C375.92 70.3828 376.348 69.8379 376.641 69.1465C376.945 68.4551 377.121 67.6582 377.168 66.7559V64.4531C377.133 63.7148 377.027 63.0527 376.852 62.4668C376.688 61.8691 376.441 61.3594 376.113 60.9375C375.797 60.5156 375.398 60.1875 374.918 59.9531C374.449 59.7188 373.893 59.6016 373.248 59.6016C372.592 59.6016 372.029 59.7539 371.561 60.0586C371.092 60.3516 370.711 60.7559 370.418 61.2715C370.137 61.7871 369.926 62.3965 369.785 63.0996C369.656 63.791 369.592 64.541 369.592 65.3496Z" fill="#888888"/>
<path d="M115.312 100.188V140H105.715V100.188H115.312ZM127.289 100.188V107.598H94.0117V100.188H127.289ZM141.645 132.562V120.367C141.645 119.529 141.526 118.809 141.289 118.207C141.052 117.605 140.678 117.141 140.168 116.812C139.658 116.466 138.974 116.293 138.117 116.293C137.424 116.293 136.832 116.411 136.34 116.648C135.848 116.885 135.474 117.241 135.219 117.715C134.964 118.189 134.836 118.79 134.836 119.52H125.621C125.621 118.152 125.922 116.885 126.523 115.719C127.143 114.534 128.018 113.504 129.148 112.629C130.297 111.754 131.664 111.079 133.25 110.605C134.854 110.113 136.641 109.867 138.609 109.867C140.961 109.867 143.057 110.259 144.898 111.043C146.758 111.827 148.225 113.003 149.301 114.57C150.376 116.12 150.914 118.07 150.914 120.422V132.535C150.914 134.467 151.023 135.935 151.242 136.938C151.461 137.922 151.771 138.788 152.172 139.535V140H142.93C142.492 139.089 142.164 137.977 141.945 136.664C141.745 135.333 141.645 133.966 141.645 132.562ZM142.766 121.926L142.82 126.848H138.746C137.889 126.848 137.16 126.966 136.559 127.203C135.975 127.44 135.501 127.768 135.137 128.188C134.79 128.589 134.535 129.044 134.371 129.555C134.225 130.065 134.152 130.603 134.152 131.168C134.152 131.715 134.28 132.207 134.535 132.645C134.809 133.064 135.173 133.392 135.629 133.629C136.085 133.866 136.595 133.984 137.16 133.984C138.181 133.984 139.047 133.793 139.758 133.41C140.487 133.009 141.043 132.526 141.426 131.961C141.809 131.396 142 130.867 142 130.375L144.023 134.148C143.659 134.878 143.24 135.616 142.766 136.363C142.31 137.111 141.736 137.803 141.043 138.441C140.368 139.061 139.539 139.572 138.555 139.973C137.57 140.355 136.376 140.547 134.973 140.547C133.15 140.547 131.473 140.173 129.941 139.426C128.428 138.678 127.216 137.639 126.305 136.309C125.393 134.96 124.938 133.41 124.938 131.66C124.938 130.129 125.211 128.762 125.758 127.559C126.323 126.355 127.171 125.335 128.301 124.496C129.431 123.658 130.871 123.02 132.621 122.582C134.371 122.145 136.431 121.926 138.801 121.926H142.766ZM165.078 116.73V140H155.863V110.414H164.504L165.078 116.73ZM163.984 124.195L161.824 124.25C161.824 121.99 162.098 119.975 162.645 118.207C163.191 116.421 163.966 114.908 164.969 113.668C165.971 112.428 167.165 111.49 168.551 110.852C169.954 110.195 171.513 109.867 173.227 109.867C174.594 109.867 175.842 110.068 176.973 110.469C178.121 110.87 179.105 111.517 179.926 112.41C180.764 113.303 181.402 114.488 181.84 115.965C182.296 117.423 182.523 119.228 182.523 121.379V140H173.254V121.352C173.254 120.167 173.09 119.264 172.762 118.645C172.434 118.007 171.96 117.569 171.34 117.332C170.72 117.095 169.964 116.977 169.07 116.977C168.122 116.977 167.32 117.159 166.664 117.523C166.008 117.888 165.479 118.398 165.078 119.055C164.695 119.693 164.413 120.449 164.23 121.324C164.066 122.199 163.984 123.156 163.984 124.195ZM204.645 133.219V98H213.914V140H205.602L204.645 133.219ZM186.488 125.562V124.988C186.488 122.746 186.734 120.704 187.227 118.863C187.719 117.004 188.448 115.409 189.414 114.078C190.38 112.729 191.583 111.69 193.023 110.961C194.464 110.232 196.122 109.867 198 109.867C199.677 109.867 201.145 110.259 202.402 111.043C203.66 111.809 204.736 112.884 205.629 114.27C206.522 115.655 207.251 117.277 207.816 119.137C208.382 120.978 208.81 122.965 209.102 125.098V125.781C208.81 127.786 208.382 129.682 207.816 131.469C207.251 133.237 206.522 134.805 205.629 136.172C204.736 137.539 203.651 138.615 202.375 139.398C201.117 140.164 199.641 140.547 197.945 140.547C196.068 140.547 194.409 140.173 192.969 139.426C191.547 138.678 190.353 137.63 189.387 136.281C188.439 134.932 187.719 133.346 187.227 131.523C186.734 129.701 186.488 127.714 186.488 125.562ZM195.703 124.988V125.562C195.703 126.674 195.776 127.704 195.922 128.652C196.068 129.6 196.314 130.439 196.66 131.168C197.025 131.879 197.499 132.435 198.082 132.836C198.684 133.237 199.422 133.438 200.297 133.438C201.482 133.438 202.457 133.155 203.223 132.59C204.007 132.025 204.581 131.223 204.945 130.184C205.328 129.145 205.492 127.923 205.438 126.52V124.359C205.474 123.156 205.392 122.099 205.191 121.188C204.991 120.258 204.672 119.483 204.234 118.863C203.815 118.243 203.277 117.779 202.621 117.469C201.983 117.141 201.227 116.977 200.352 116.977C199.495 116.977 198.766 117.177 198.164 117.578C197.581 117.979 197.107 118.544 196.742 119.273C196.378 119.984 196.113 120.832 195.949 121.816C195.785 122.783 195.703 123.84 195.703 124.988ZM233.465 140.547C231.059 140.547 228.908 140.173 227.012 139.426C225.116 138.66 223.512 137.612 222.199 136.281C220.905 134.951 219.911 133.419 219.219 131.688C218.544 129.956 218.207 128.124 218.207 126.191V125.152C218.207 122.983 218.508 120.978 219.109 119.137C219.711 117.277 220.604 115.655 221.789 114.27C222.974 112.884 224.46 111.809 226.246 111.043C228.033 110.259 230.111 109.867 232.48 109.867C234.577 109.867 236.454 110.204 238.113 110.879C239.772 111.553 241.176 112.52 242.324 113.777C243.491 115.035 244.375 116.557 244.977 118.344C245.596 120.13 245.906 122.135 245.906 124.359V128.105H221.734V122.336H236.91V121.625C236.928 120.641 236.755 119.802 236.391 119.109C236.044 118.417 235.534 117.888 234.859 117.523C234.185 117.159 233.365 116.977 232.398 116.977C231.396 116.977 230.566 117.195 229.91 117.633C229.272 118.07 228.771 118.672 228.406 119.438C228.06 120.185 227.814 121.051 227.668 122.035C227.522 123.02 227.449 124.059 227.449 125.152V126.191C227.449 127.285 227.595 128.279 227.887 129.172C228.197 130.065 228.634 130.831 229.199 131.469C229.783 132.089 230.475 132.572 231.277 132.918C232.098 133.264 233.027 133.438 234.066 133.438C235.324 133.438 236.564 133.201 237.785 132.727C239.007 132.253 240.055 131.469 240.93 130.375L245.113 135.352C244.512 136.208 243.655 137.038 242.543 137.84C241.449 138.642 240.137 139.298 238.605 139.809C237.074 140.301 235.361 140.547 233.465 140.547ZM258.949 116.676V140H249.734V110.414H258.375L258.949 116.676ZM257.828 124.195L255.723 124.25C255.723 122.172 255.969 120.258 256.461 118.508C256.953 116.758 257.682 115.236 258.648 113.941C259.615 112.647 260.799 111.645 262.203 110.934C263.625 110.223 265.266 109.867 267.125 109.867C268.419 109.867 269.595 110.068 270.652 110.469C271.71 110.852 272.621 111.462 273.387 112.301C274.152 113.121 274.736 114.197 275.137 115.527C275.556 116.84 275.766 118.417 275.766 120.258V140H266.551V121.434C266.551 120.176 266.405 119.228 266.113 118.59C265.84 117.952 265.439 117.523 264.91 117.305C264.382 117.086 263.734 116.977 262.969 116.977C262.167 116.977 261.447 117.159 260.809 117.523C260.171 117.888 259.624 118.398 259.168 119.055C258.73 119.693 258.393 120.449 258.156 121.324C257.938 122.199 257.828 123.156 257.828 124.195ZM274.727 124.195L272.156 124.25C272.156 122.172 272.384 120.258 272.84 118.508C273.314 116.758 274.016 115.236 274.945 113.941C275.893 112.647 277.069 111.645 278.473 110.934C279.876 110.223 281.508 109.867 283.367 109.867C284.716 109.867 285.956 110.068 287.086 110.469C288.216 110.87 289.191 111.517 290.012 112.41C290.832 113.303 291.47 114.488 291.926 115.965C292.382 117.423 292.609 119.228 292.609 121.379V140H283.367V121.379C283.367 120.158 283.221 119.237 282.93 118.617C282.656 117.979 282.255 117.551 281.727 117.332C281.198 117.095 280.569 116.977 279.84 116.977C278.965 116.977 278.208 117.159 277.57 117.523C276.932 117.888 276.395 118.398 275.957 119.055C275.538 119.693 275.228 120.449 275.027 121.324C274.827 122.199 274.727 123.156 274.727 124.195Z" fill="black"/>
<rect x="93" y="178" width="917" height="77" rx="10" fill="#D3D3D3"/>
<rect x="111" y="196" width="91" height="41" rx="3" fill="#424242"/>
<rect x="111" y="196" width="91" height="41" rx="3" stroke="#424242" stroke-width="4"/>
<path d="M134.141 210.203H139.177C140.161 210.203 141.017 210.35 141.743 210.643C142.47 210.936 143.029 211.369 143.422 211.943C143.82 212.518 144.02 213.227 144.02 214.07C144.02 214.803 143.905 215.415 143.677 215.907C143.448 216.399 143.129 216.807 142.719 217.129C142.314 217.445 141.843 217.706 141.304 217.911L140.293 218.482H136.065L136.048 216.101H139.177C139.569 216.101 139.895 216.03 140.152 215.89C140.41 215.749 140.604 215.55 140.732 215.292C140.867 215.028 140.935 214.715 140.935 214.352C140.935 213.982 140.867 213.666 140.732 213.402C140.598 213.139 140.398 212.937 140.135 212.796C139.877 212.655 139.558 212.585 139.177 212.585H137.226V223H134.141V210.203ZM141.146 223L138.315 217.34L141.585 217.322L144.45 222.868V223H141.146ZM150.348 223.176C149.574 223.176 148.883 223.056 148.273 222.815C147.664 222.569 147.148 222.232 146.727 221.805C146.311 221.377 145.991 220.885 145.769 220.328C145.552 219.771 145.443 219.183 145.443 218.562V218.228C145.443 217.53 145.54 216.886 145.733 216.294C145.927 215.696 146.214 215.175 146.595 214.729C146.976 214.284 147.453 213.938 148.027 213.692C148.602 213.44 149.27 213.314 150.031 213.314C150.705 213.314 151.309 213.423 151.842 213.64C152.375 213.856 152.826 214.167 153.195 214.571C153.57 214.976 153.854 215.465 154.048 216.039C154.247 216.613 154.347 217.258 154.347 217.973V219.177H146.577V217.322H151.455V217.094C151.461 216.777 151.405 216.508 151.288 216.285C151.177 216.062 151.013 215.893 150.796 215.775C150.579 215.658 150.315 215.6 150.005 215.6C149.683 215.6 149.416 215.67 149.205 215.811C149 215.951 148.839 216.145 148.722 216.391C148.61 216.631 148.531 216.909 148.484 217.226C148.438 217.542 148.414 217.876 148.414 218.228V218.562C148.414 218.913 148.461 219.232 148.555 219.52C148.654 219.807 148.795 220.053 148.977 220.258C149.164 220.457 149.387 220.612 149.645 220.724C149.908 220.835 150.207 220.891 150.541 220.891C150.945 220.891 151.344 220.814 151.736 220.662C152.129 220.51 152.466 220.258 152.747 219.906L154.092 221.506C153.898 221.781 153.623 222.048 153.266 222.306C152.914 222.563 152.492 222.774 152 222.938C151.508 223.097 150.957 223.176 150.348 223.176ZM160.49 220.609V216.689C160.49 216.42 160.452 216.188 160.376 215.995C160.3 215.802 160.18 215.652 160.016 215.547C159.852 215.436 159.632 215.38 159.356 215.38C159.134 215.38 158.943 215.418 158.785 215.494C158.627 215.57 158.507 215.685 158.425 215.837C158.343 215.989 158.302 216.183 158.302 216.417H155.34C155.34 215.978 155.437 215.57 155.63 215.195C155.829 214.814 156.11 214.483 156.474 214.202C156.843 213.921 157.282 213.704 157.792 213.552C158.308 213.394 158.882 213.314 159.515 213.314C160.271 213.314 160.944 213.44 161.536 213.692C162.134 213.944 162.605 214.322 162.951 214.826C163.297 215.324 163.47 215.951 163.47 216.707V220.601C163.47 221.222 163.505 221.693 163.575 222.016C163.646 222.332 163.745 222.61 163.874 222.851V223H160.903C160.763 222.707 160.657 222.35 160.587 221.928C160.522 221.5 160.49 221.061 160.49 220.609ZM160.851 217.19L160.868 218.772H159.559C159.283 218.772 159.049 218.811 158.855 218.887C158.668 218.963 158.516 219.068 158.398 219.203C158.287 219.332 158.205 219.479 158.152 219.643C158.105 219.807 158.082 219.979 158.082 220.161C158.082 220.337 158.123 220.495 158.205 220.636C158.293 220.771 158.41 220.876 158.557 220.952C158.703 221.028 158.867 221.066 159.049 221.066C159.377 221.066 159.655 221.005 159.884 220.882C160.118 220.753 160.297 220.598 160.42 220.416C160.543 220.234 160.604 220.064 160.604 219.906L161.255 221.119C161.138 221.354 161.003 221.591 160.851 221.831C160.704 222.071 160.52 222.294 160.297 222.499C160.08 222.698 159.813 222.862 159.497 222.991C159.181 223.114 158.797 223.176 158.346 223.176C157.76 223.176 157.221 223.056 156.729 222.815C156.242 222.575 155.853 222.241 155.56 221.813C155.267 221.38 155.12 220.882 155.12 220.319C155.12 219.827 155.208 219.388 155.384 219.001C155.565 218.614 155.838 218.286 156.201 218.017C156.564 217.747 157.027 217.542 157.59 217.401C158.152 217.261 158.814 217.19 159.576 217.19H160.851ZM169.13 220.891C169.405 220.891 169.64 220.841 169.833 220.741C170.032 220.636 170.182 220.489 170.281 220.302C170.387 220.108 170.437 219.877 170.431 219.607H173.217C173.223 220.322 173.047 220.949 172.689 221.488C172.338 222.021 171.857 222.438 171.248 222.736C170.645 223.029 169.962 223.176 169.2 223.176C168.456 223.176 167.806 223.056 167.249 222.815C166.692 222.569 166.227 222.229 165.852 221.796C165.482 221.356 165.204 220.844 165.017 220.258C164.835 219.672 164.744 219.036 164.744 218.351V218.148C164.744 217.463 164.835 216.827 165.017 216.241C165.204 215.649 165.482 215.137 165.852 214.703C166.227 214.264 166.689 213.924 167.24 213.684C167.797 213.438 168.444 213.314 169.183 213.314C169.974 213.314 170.671 213.464 171.274 213.763C171.884 214.062 172.361 214.495 172.707 215.063C173.053 215.632 173.223 216.32 173.217 217.129H170.431C170.437 216.842 170.393 216.584 170.299 216.355C170.205 216.127 170.059 215.945 169.859 215.811C169.666 215.67 169.417 215.6 169.112 215.6C168.808 215.6 168.562 215.667 168.374 215.802C168.187 215.937 168.043 216.124 167.943 216.364C167.85 216.599 167.785 216.868 167.75 217.173C167.721 217.478 167.706 217.803 167.706 218.148V218.351C167.706 218.702 167.721 219.033 167.75 219.344C167.785 219.648 167.853 219.918 167.952 220.152C168.052 220.381 168.195 220.562 168.383 220.697C168.57 220.826 168.819 220.891 169.13 220.891ZM179.492 213.49V215.547H173.762V213.49H179.492ZM174.966 211.126H177.928V219.897C177.928 220.149 177.957 220.346 178.016 220.486C178.074 220.621 178.174 220.718 178.314 220.776C178.461 220.829 178.654 220.855 178.895 220.855C179.064 220.855 179.205 220.853 179.316 220.847C179.428 220.835 179.533 220.82 179.633 220.803V222.921C179.381 223.003 179.117 223.064 178.842 223.105C178.566 223.152 178.273 223.176 177.963 223.176C177.33 223.176 176.788 223.076 176.337 222.877C175.892 222.678 175.552 222.364 175.317 221.937C175.083 221.509 174.966 220.952 174.966 220.267V211.126Z" fill="white"/>
<rect x="222" y="196" width="133" height="41" rx="3" fill="#424242"/>
<rect x="222" y="196" width="133" height="41" rx="3" stroke="#424242" stroke-width="4"/>
<path d="M251.34 210.203V223H248.255V210.203H251.34ZM255.189 210.203V212.585H244.493V210.203H255.189ZM258.556 221.884L261.017 213.49H264.198L260.375 224.415C260.293 224.655 260.185 224.913 260.05 225.188C259.915 225.47 259.73 225.736 259.496 225.988C259.262 226.24 258.96 226.445 258.591 226.604C258.228 226.762 257.776 226.841 257.237 226.841C256.95 226.841 256.739 226.826 256.604 226.797C256.476 226.773 256.276 226.729 256.007 226.665V224.547C256.083 224.547 256.147 224.547 256.2 224.547C256.259 224.547 256.323 224.547 256.394 224.547C256.71 224.547 256.962 224.515 257.149 224.45C257.343 224.386 257.489 224.292 257.589 224.169C257.694 224.046 257.776 223.896 257.835 223.721L258.556 221.884ZM257.932 213.49L259.804 220.144L260.129 223.281H258.143L254.759 213.49H257.932ZM267.96 215.318V226.656H264.998V213.49H267.758L267.96 215.318ZM273.796 218.131V218.315C273.796 219.007 273.717 219.648 273.559 220.24C273.4 220.832 273.166 221.348 272.855 221.787C272.545 222.227 272.158 222.569 271.695 222.815C271.238 223.056 270.708 223.176 270.104 223.176C269.536 223.176 269.047 223.05 268.637 222.798C268.227 222.546 267.884 222.197 267.608 221.752C267.333 221.307 267.11 220.797 266.94 220.223C266.771 219.648 266.636 219.042 266.536 218.403V218.166C266.636 217.48 266.771 216.845 266.94 216.259C267.11 215.667 267.333 215.151 267.608 214.712C267.884 214.272 268.224 213.93 268.628 213.684C269.038 213.438 269.527 213.314 270.096 213.314C270.699 213.314 271.229 213.429 271.687 213.657C272.149 213.886 272.536 214.214 272.847 214.642C273.163 215.063 273.4 215.57 273.559 216.162C273.717 216.754 273.796 217.41 273.796 218.131ZM270.834 218.315V218.131C270.834 217.762 270.808 217.425 270.755 217.12C270.702 216.81 270.617 216.54 270.5 216.312C270.389 216.083 270.239 215.907 270.052 215.784C269.864 215.661 269.633 215.6 269.357 215.6C269.041 215.6 268.774 215.649 268.558 215.749C268.347 215.843 268.177 215.989 268.048 216.188C267.925 216.382 267.837 216.625 267.784 216.918C267.737 217.205 267.717 217.542 267.723 217.929V218.649C267.711 219.095 267.755 219.487 267.854 219.827C267.954 220.161 268.127 220.422 268.373 220.609C268.619 220.797 268.953 220.891 269.375 220.891C269.656 220.891 269.891 220.826 270.078 220.697C270.266 220.562 270.415 220.378 270.526 220.144C270.638 219.903 270.717 219.628 270.764 219.317C270.811 219.007 270.834 218.673 270.834 218.315ZM279.72 223.176C278.946 223.176 278.255 223.056 277.646 222.815C277.036 222.569 276.521 222.232 276.099 221.805C275.683 221.377 275.363 220.885 275.141 220.328C274.924 219.771 274.815 219.183 274.815 218.562V218.228C274.815 217.53 274.912 216.886 275.105 216.294C275.299 215.696 275.586 215.175 275.967 214.729C276.348 214.284 276.825 213.938 277.399 213.692C277.974 213.44 278.642 213.314 279.403 213.314C280.077 213.314 280.681 213.423 281.214 213.64C281.747 213.856 282.198 214.167 282.567 214.571C282.942 214.976 283.227 215.465 283.42 216.039C283.619 216.613 283.719 217.258 283.719 217.973V219.177H275.949V217.322H280.827V217.094C280.833 216.777 280.777 216.508 280.66 216.285C280.549 216.062 280.385 215.893 280.168 215.775C279.951 215.658 279.688 215.6 279.377 215.6C279.055 215.6 278.788 215.67 278.577 215.811C278.372 215.951 278.211 216.145 278.094 216.391C277.982 216.631 277.903 216.909 277.856 217.226C277.81 217.542 277.786 217.876 277.786 218.228V218.562C277.786 218.913 277.833 219.232 277.927 219.52C278.026 219.807 278.167 220.053 278.349 220.258C278.536 220.457 278.759 220.612 279.017 220.724C279.28 220.835 279.579 220.891 279.913 220.891C280.317 220.891 280.716 220.814 281.108 220.662C281.501 220.51 281.838 220.258 282.119 219.906L283.464 221.506C283.271 221.781 282.995 222.048 282.638 222.306C282.286 222.563 281.864 222.774 281.372 222.938C280.88 223.097 280.329 223.176 279.72 223.176ZM291.655 219.599C291.655 219.399 291.626 219.221 291.567 219.062C291.509 218.898 291.4 218.746 291.242 218.605C291.084 218.465 290.855 218.324 290.557 218.184C290.264 218.037 289.877 217.885 289.396 217.727C288.834 217.539 288.292 217.328 287.771 217.094C287.249 216.854 286.783 216.575 286.373 216.259C285.963 215.937 285.638 215.562 285.397 215.134C285.157 214.7 285.037 214.196 285.037 213.622C285.037 213.071 285.16 212.576 285.406 212.137C285.652 211.691 285.995 211.313 286.435 211.003C286.88 210.687 287.401 210.446 287.999 210.282C288.597 210.112 289.25 210.027 289.959 210.027C290.896 210.027 291.723 210.191 292.438 210.52C293.158 210.842 293.721 211.302 294.125 211.899C294.535 212.491 294.74 213.191 294.74 214H291.673C291.673 213.678 291.605 213.394 291.471 213.147C291.342 212.901 291.146 212.708 290.882 212.567C290.618 212.427 290.287 212.356 289.889 212.356C289.502 212.356 289.177 212.415 288.913 212.532C288.649 212.649 288.45 212.808 288.315 213.007C288.181 213.2 288.113 213.414 288.113 213.648C288.113 213.842 288.166 214.018 288.271 214.176C288.383 214.328 288.538 214.472 288.737 214.606C288.942 214.741 289.188 214.87 289.476 214.993C289.769 215.116 290.097 215.236 290.46 215.354C291.14 215.57 291.743 215.813 292.271 216.083C292.804 216.347 293.252 216.648 293.615 216.988C293.984 217.322 294.263 217.703 294.45 218.131C294.644 218.559 294.74 219.042 294.74 219.581C294.74 220.155 294.629 220.665 294.406 221.11C294.184 221.556 293.864 221.934 293.448 222.244C293.032 222.549 292.534 222.78 291.954 222.938C291.374 223.097 290.727 223.176 290.012 223.176C289.355 223.176 288.708 223.094 288.069 222.93C287.437 222.76 286.862 222.502 286.347 222.156C285.831 221.805 285.418 221.356 285.107 220.812C284.803 220.261 284.65 219.607 284.65 218.852H287.744C287.744 219.227 287.794 219.543 287.894 219.801C287.993 220.059 288.14 220.267 288.333 220.425C288.526 220.577 288.764 220.688 289.045 220.759C289.326 220.823 289.648 220.855 290.012 220.855C290.404 220.855 290.721 220.8 290.961 220.688C291.201 220.571 291.377 220.419 291.488 220.231C291.6 220.038 291.655 219.827 291.655 219.599ZM300.207 220.891C300.482 220.891 300.717 220.841 300.91 220.741C301.109 220.636 301.259 220.489 301.358 220.302C301.464 220.108 301.514 219.877 301.508 219.607H304.294C304.3 220.322 304.124 220.949 303.767 221.488C303.415 222.021 302.935 222.438 302.325 222.736C301.722 223.029 301.039 223.176 300.277 223.176C299.533 223.176 298.883 223.056 298.326 222.815C297.77 222.569 297.304 222.229 296.929 221.796C296.56 221.356 296.281 220.844 296.094 220.258C295.912 219.672 295.821 219.036 295.821 218.351V218.148C295.821 217.463 295.912 216.827 296.094 216.241C296.281 215.649 296.56 215.137 296.929 214.703C297.304 214.264 297.767 213.924 298.317 213.684C298.874 213.438 299.521 213.314 300.26 213.314C301.051 213.314 301.748 213.464 302.352 213.763C302.961 214.062 303.438 214.495 303.784 215.063C304.13 215.632 304.3 216.32 304.294 217.129H301.508C301.514 216.842 301.47 216.584 301.376 216.355C301.282 216.127 301.136 215.945 300.937 215.811C300.743 215.67 300.494 215.6 300.189 215.6C299.885 215.6 299.639 215.667 299.451 215.802C299.264 215.937 299.12 216.124 299.021 216.364C298.927 216.599 298.862 216.868 298.827 217.173C298.798 217.478 298.783 217.803 298.783 218.148V218.351C298.783 218.702 298.798 219.033 298.827 219.344C298.862 219.648 298.93 219.918 299.029 220.152C299.129 220.381 299.272 220.562 299.46 220.697C299.647 220.826 299.896 220.891 300.207 220.891ZM308.548 215.846V223H305.586V213.49H308.354L308.548 215.846ZM311.36 213.42L311.308 216.171C311.19 216.159 311.032 216.145 310.833 216.127C310.634 216.109 310.467 216.101 310.332 216.101C309.986 216.101 309.688 216.142 309.436 216.224C309.189 216.3 308.984 216.417 308.82 216.575C308.662 216.728 308.545 216.921 308.469 217.155C308.398 217.39 308.366 217.662 308.372 217.973L307.836 217.621C307.836 216.982 307.897 216.402 308.021 215.881C308.149 215.354 308.331 214.899 308.565 214.519C308.8 214.132 309.084 213.836 309.418 213.631C309.752 213.42 310.127 213.314 310.543 213.314C310.689 213.314 310.833 213.323 310.974 213.341C311.12 213.358 311.249 213.385 311.36 213.42ZM315.509 213.49V223H312.538V213.49H315.509ZM312.362 211.038C312.362 210.616 312.515 210.271 312.819 210.001C313.124 209.731 313.52 209.597 314.006 209.597C314.492 209.597 314.888 209.731 315.192 210.001C315.497 210.271 315.649 210.616 315.649 211.038C315.649 211.46 315.497 211.806 315.192 212.075C314.888 212.345 314.492 212.479 314.006 212.479C313.52 212.479 313.124 212.345 312.819 212.075C312.515 211.806 312.362 211.46 312.362 211.038ZM320.325 215.318V226.656H317.363V213.49H320.123L320.325 215.318ZM326.161 218.131V218.315C326.161 219.007 326.082 219.648 325.924 220.24C325.766 220.832 325.531 221.348 325.221 221.787C324.91 222.227 324.523 222.569 324.061 222.815C323.604 223.056 323.073 223.176 322.47 223.176C321.901 223.176 321.412 223.05 321.002 222.798C320.592 222.546 320.249 222.197 319.974 221.752C319.698 221.307 319.476 220.797 319.306 220.223C319.136 219.648 319.001 219.042 318.901 218.403V218.166C319.001 217.48 319.136 216.845 319.306 216.259C319.476 215.667 319.698 215.151 319.974 214.712C320.249 214.272 320.589 213.93 320.993 213.684C321.403 213.438 321.893 213.314 322.461 213.314C323.064 213.314 323.595 213.429 324.052 213.657C324.515 213.886 324.901 214.214 325.212 214.642C325.528 215.063 325.766 215.57 325.924 216.162C326.082 216.754 326.161 217.41 326.161 218.131ZM323.199 218.315V218.131C323.199 217.762 323.173 217.425 323.12 217.12C323.067 216.81 322.982 216.54 322.865 216.312C322.754 216.083 322.604 215.907 322.417 215.784C322.229 215.661 321.998 215.6 321.723 215.6C321.406 215.6 321.14 215.649 320.923 215.749C320.712 215.843 320.542 215.989 320.413 216.188C320.29 216.382 320.202 216.625 320.149 216.918C320.103 217.205 320.082 217.542 320.088 217.929V218.649C320.076 219.095 320.12 219.487 320.22 219.827C320.319 220.161 320.492 220.422 320.738 220.609C320.984 220.797 321.318 220.891 321.74 220.891C322.021 220.891 322.256 220.826 322.443 220.697C322.631 220.562 322.78 220.378 322.892 220.144C323.003 219.903 323.082 219.628 323.129 219.317C323.176 219.007 323.199 218.673 323.199 218.315ZM332.489 213.49V215.547H326.759V213.49H332.489ZM327.963 211.126H330.925V219.897C330.925 220.149 330.954 220.346 331.013 220.486C331.071 220.621 331.171 220.718 331.312 220.776C331.458 220.829 331.651 220.855 331.892 220.855C332.062 220.855 332.202 220.853 332.313 220.847C332.425 220.835 332.53 220.82 332.63 220.803V222.921C332.378 223.003 332.114 223.064 331.839 223.105C331.563 223.152 331.271 223.176 330.96 223.176C330.327 223.176 329.785 223.076 329.334 222.877C328.889 222.678 328.549 222.364 328.314 221.937C328.08 221.509 327.963 220.952 327.963 220.267V211.126Z" fill="white"/>
<rect x="375" y="196" width="104" height="41" rx="3" fill="#424242"/>
<rect x="375" y="196" width="104" height="41" rx="3" stroke="#424242" stroke-width="4"/>
<path d="M406.812 220.627V223H400.343V220.627H406.812ZM401.441 210.203V223H398.356V210.203H401.441ZM412.911 220.609V216.689C412.911 216.42 412.873 216.188 412.797 215.995C412.721 215.802 412.601 215.652 412.437 215.547C412.272 215.436 412.053 215.38 411.777 215.38C411.555 215.38 411.364 215.418 411.206 215.494C411.048 215.57 410.928 215.685 410.846 215.837C410.764 215.989 410.723 216.183 410.723 216.417H407.761C407.761 215.978 407.857 215.57 408.051 215.195C408.25 214.814 408.531 214.483 408.895 214.202C409.264 213.921 409.703 213.704 410.213 213.552C410.729 213.394 411.303 213.314 411.936 213.314C412.691 213.314 413.365 213.44 413.957 213.692C414.555 213.944 415.026 214.322 415.372 214.826C415.718 215.324 415.891 215.951 415.891 216.707V220.601C415.891 221.222 415.926 221.693 415.996 222.016C416.066 222.332 416.166 222.61 416.295 222.851V223H413.324C413.184 222.707 413.078 222.35 413.008 221.928C412.943 221.5 412.911 221.061 412.911 220.609ZM413.271 217.19L413.289 218.772H411.979C411.704 218.772 411.47 218.811 411.276 218.887C411.089 218.963 410.937 219.068 410.819 219.203C410.708 219.332 410.626 219.479 410.573 219.643C410.526 219.807 410.503 219.979 410.503 220.161C410.503 220.337 410.544 220.495 410.626 220.636C410.714 220.771 410.831 220.876 410.978 220.952C411.124 221.028 411.288 221.066 411.47 221.066C411.798 221.066 412.076 221.005 412.305 220.882C412.539 220.753 412.718 220.598 412.841 220.416C412.964 220.234 413.025 220.064 413.025 219.906L413.676 221.119C413.559 221.354 413.424 221.591 413.271 221.831C413.125 222.071 412.94 222.294 412.718 222.499C412.501 222.698 412.234 222.862 411.918 222.991C411.602 223.114 411.218 223.176 410.767 223.176C410.181 223.176 409.642 223.056 409.149 222.815C408.663 222.575 408.273 222.241 407.98 221.813C407.688 221.38 407.541 220.882 407.541 220.319C407.541 219.827 407.629 219.388 407.805 219.001C407.986 218.614 408.259 218.286 408.622 218.017C408.985 217.747 409.448 217.542 410.011 217.401C410.573 217.261 411.235 217.19 411.997 217.19H413.271ZM420.522 215.846V223H417.561V213.49H420.329L420.522 215.846ZM423.335 213.42L423.282 216.171C423.165 216.159 423.007 216.145 422.808 216.127C422.608 216.109 422.441 216.101 422.307 216.101C421.961 216.101 421.662 216.142 421.41 216.224C421.164 216.3 420.959 216.417 420.795 216.575C420.637 216.728 420.52 216.921 420.443 217.155C420.373 217.39 420.341 217.662 420.347 217.973L419.811 217.621C419.811 216.982 419.872 216.402 419.995 215.881C420.124 215.354 420.306 214.899 420.54 214.519C420.774 214.132 421.059 213.836 421.393 213.631C421.727 213.42 422.102 213.314 422.518 213.314C422.664 213.314 422.808 213.323 422.948 213.341C423.095 213.358 423.224 213.385 423.335 213.42ZM429.03 220.609V216.689C429.03 216.42 428.992 216.188 428.916 215.995C428.84 215.802 428.72 215.652 428.556 215.547C428.392 215.436 428.172 215.38 427.896 215.38C427.674 215.38 427.483 215.418 427.325 215.494C427.167 215.57 427.047 215.685 426.965 215.837C426.883 215.989 426.842 216.183 426.842 216.417H423.88C423.88 215.978 423.977 215.57 424.17 215.195C424.369 214.814 424.65 214.483 425.014 214.202C425.383 213.921 425.822 213.704 426.332 213.552C426.848 213.394 427.422 213.314 428.055 213.314C428.811 213.314 429.484 213.44 430.076 213.692C430.674 213.944 431.146 214.322 431.491 214.826C431.837 215.324 432.01 215.951 432.01 216.707V220.601C432.01 221.222 432.045 221.693 432.115 222.016C432.186 222.332 432.285 222.61 432.414 222.851V223H429.443C429.303 222.707 429.197 222.35 429.127 221.928C429.062 221.5 429.03 221.061 429.03 220.609ZM429.391 217.19L429.408 218.772H428.099C427.823 218.772 427.589 218.811 427.396 218.887C427.208 218.963 427.056 219.068 426.938 219.203C426.827 219.332 426.745 219.479 426.692 219.643C426.646 219.807 426.622 219.979 426.622 220.161C426.622 220.337 426.663 220.495 426.745 220.636C426.833 220.771 426.95 220.876 427.097 220.952C427.243 221.028 427.407 221.066 427.589 221.066C427.917 221.066 428.195 221.005 428.424 220.882C428.658 220.753 428.837 220.598 428.96 220.416C429.083 220.234 429.145 220.064 429.145 219.906L429.795 221.119C429.678 221.354 429.543 221.591 429.391 221.831C429.244 222.071 429.06 222.294 428.837 222.499C428.62 222.698 428.354 222.862 428.037 222.991C427.721 223.114 427.337 223.176 426.886 223.176C426.3 223.176 425.761 223.056 425.269 222.815C424.782 222.575 424.393 222.241 424.1 221.813C423.807 221.38 423.66 220.882 423.66 220.319C423.66 219.827 423.748 219.388 423.924 219.001C424.105 218.614 424.378 218.286 424.741 218.017C425.104 217.747 425.567 217.542 426.13 217.401C426.692 217.261 427.354 217.19 428.116 217.19H429.391ZM436.94 220.97L438.812 213.49H441.933L438.821 223H436.976L436.94 220.97ZM435.833 213.49L437.679 220.97L437.661 223H435.807L432.704 213.49H435.833ZM447.294 223.176C446.521 223.176 445.829 223.056 445.22 222.815C444.61 222.569 444.095 222.232 443.673 221.805C443.257 221.377 442.938 220.885 442.715 220.328C442.498 219.771 442.39 219.183 442.39 218.562V218.228C442.39 217.53 442.486 216.886 442.68 216.294C442.873 215.696 443.16 215.175 443.541 214.729C443.922 214.284 444.399 213.938 444.974 213.692C445.548 213.44 446.216 213.314 446.978 213.314C447.651 213.314 448.255 213.423 448.788 213.64C449.321 213.856 449.772 214.167 450.142 214.571C450.517 214.976 450.801 215.465 450.994 216.039C451.193 216.613 451.293 217.258 451.293 217.973V219.177H443.523V217.322H448.401V217.094C448.407 216.777 448.352 216.508 448.234 216.285C448.123 216.062 447.959 215.893 447.742 215.775C447.525 215.658 447.262 215.6 446.951 215.6C446.629 215.6 446.362 215.67 446.151 215.811C445.946 215.951 445.785 216.145 445.668 216.391C445.557 216.631 445.478 216.909 445.431 217.226C445.384 217.542 445.36 217.876 445.36 218.228V218.562C445.36 218.913 445.407 219.232 445.501 219.52C445.601 219.807 445.741 220.053 445.923 220.258C446.11 220.457 446.333 220.612 446.591 220.724C446.854 220.835 447.153 220.891 447.487 220.891C447.892 220.891 448.29 220.814 448.683 220.662C449.075 220.51 449.412 220.258 449.693 219.906L451.038 221.506C450.845 221.781 450.569 222.048 450.212 222.306C449.86 222.563 449.438 222.774 448.946 222.938C448.454 223.097 447.903 223.176 447.294 223.176ZM455.626 209.5V223H452.655V209.5H455.626Z" fill="white"/>
<rect x="499" y="196" width="80" height="41" rx="3" fill="#424242"/>
<rect x="499" y="196" width="80" height="41" rx="3" stroke="#424242" stroke-width="4"/>
<path d="M532.804 210.203V223H529.728L525.201 215.037V223H522.116V210.203H525.201L529.728 218.166V210.203H532.804ZM543.456 219.476C543.456 220.29 543.263 220.973 542.876 221.523C542.495 222.074 541.968 222.487 541.294 222.763C540.626 223.038 539.864 223.176 539.009 223.176C538.159 223.176 537.395 223.038 536.715 222.763C536.041 222.487 535.508 222.074 535.115 221.523C534.723 220.973 534.526 220.29 534.526 219.476C534.526 218.919 534.638 218.421 534.86 217.981C535.089 217.536 535.405 217.158 535.81 216.848C536.214 216.537 536.686 216.3 537.225 216.136C537.77 215.972 538.358 215.89 538.991 215.89C539.847 215.89 540.611 216.036 541.285 216.329C541.959 216.616 542.489 217.026 542.876 217.56C543.263 218.093 543.456 218.731 543.456 219.476ZM540.477 219.238C540.477 218.887 540.415 218.591 540.292 218.351C540.169 218.104 539.996 217.917 539.773 217.788C539.551 217.659 539.29 217.595 538.991 217.595C538.698 217.595 538.438 217.659 538.209 217.788C537.986 217.917 537.811 218.104 537.682 218.351C537.559 218.591 537.497 218.887 537.497 219.238C537.497 219.578 537.562 219.874 537.69 220.126C537.819 220.372 537.995 220.562 538.218 220.697C538.446 220.826 538.71 220.891 539.009 220.891C539.308 220.891 539.565 220.826 539.782 220.697C540.005 220.562 540.175 220.372 540.292 220.126C540.415 219.874 540.477 219.578 540.477 219.238ZM543.192 213.622C543.192 214.29 543.014 214.876 542.656 215.38C542.305 215.878 541.812 216.268 541.18 216.549C540.553 216.824 539.829 216.962 539.009 216.962C538.194 216.962 537.468 216.824 536.829 216.549C536.196 216.268 535.698 215.878 535.335 215.38C534.978 214.876 534.799 214.29 534.799 213.622C534.799 212.837 534.978 212.178 535.335 211.645C535.698 211.111 536.196 210.707 536.829 210.432C537.462 210.156 538.183 210.019 538.991 210.019C539.812 210.019 540.538 210.156 541.171 210.432C541.804 210.707 542.299 211.111 542.656 211.645C543.014 212.178 543.192 212.837 543.192 213.622ZM540.23 213.78C540.23 213.476 540.184 213.215 540.09 212.998C539.996 212.775 539.858 212.605 539.677 212.488C539.495 212.365 539.267 212.304 538.991 212.304C538.728 212.304 538.505 212.362 538.323 212.479C538.142 212.597 538.004 212.767 537.91 212.989C537.816 213.206 537.77 213.47 537.77 213.78C537.77 214.085 537.816 214.352 537.91 214.58C538.004 214.809 538.142 214.987 538.323 215.116C538.511 215.245 538.739 215.31 539.009 215.31C539.284 215.31 539.51 215.245 539.686 215.116C539.867 214.987 540.002 214.809 540.09 214.58C540.184 214.352 540.23 214.085 540.23 213.78ZM555.884 210.203V223H552.808L548.281 215.037V223H545.196V210.203H548.281L552.808 218.166V210.203H555.884Z" fill="white"/>
<rect x="599" y="196" width="105" height="41" rx="3" fill="#424242"/>
<rect x="599" y="196" width="105" height="41" rx="3" stroke="#424242" stroke-width="4"/>
<path d="M623.929 210.203H626.442L629.299 219.106L632.155 210.203H634.669L630.318 223H628.279L623.929 210.203ZM622.399 210.203H625.001L625.484 220.012V223H622.399V210.203ZM633.597 210.203H636.207V223H633.113V220.012L633.597 210.203ZM640.259 210.203L642.614 215.758L644.979 210.203H648.301L644.188 218.403V223H641.05V218.403L636.928 210.203H640.259ZM655.692 219.599C655.692 219.399 655.663 219.221 655.604 219.062C655.546 218.898 655.438 218.746 655.279 218.605C655.121 218.465 654.893 218.324 654.594 218.184C654.301 218.037 653.914 217.885 653.434 217.727C652.871 217.539 652.329 217.328 651.808 217.094C651.286 216.854 650.82 216.575 650.41 216.259C650 215.937 649.675 215.562 649.435 215.134C649.194 214.7 649.074 214.196 649.074 213.622C649.074 213.071 649.197 212.576 649.443 212.137C649.689 211.691 650.032 211.313 650.472 211.003C650.917 210.687 651.438 210.446 652.036 210.282C652.634 210.112 653.287 210.027 653.996 210.027C654.934 210.027 655.76 210.191 656.475 210.52C657.195 210.842 657.758 211.302 658.162 211.899C658.572 212.491 658.777 213.191 658.777 214H655.71C655.71 213.678 655.643 213.394 655.508 213.147C655.379 212.901 655.183 212.708 654.919 212.567C654.655 212.427 654.324 212.356 653.926 212.356C653.539 212.356 653.214 212.415 652.95 212.532C652.687 212.649 652.487 212.808 652.353 213.007C652.218 213.2 652.15 213.414 652.15 213.648C652.15 213.842 652.203 214.018 652.309 214.176C652.42 214.328 652.575 214.472 652.774 214.606C652.979 214.741 653.226 214.87 653.513 214.993C653.806 215.116 654.134 215.236 654.497 215.354C655.177 215.57 655.78 215.813 656.308 216.083C656.841 216.347 657.289 216.648 657.652 216.988C658.021 217.322 658.3 217.703 658.487 218.131C658.681 218.559 658.777 219.042 658.777 219.581C658.777 220.155 658.666 220.665 658.443 221.11C658.221 221.556 657.901 221.934 657.485 222.244C657.069 222.549 656.571 222.78 655.991 222.938C655.411 223.097 654.764 223.176 654.049 223.176C653.393 223.176 652.745 223.094 652.106 222.93C651.474 222.76 650.899 222.502 650.384 222.156C649.868 221.805 649.455 221.356 649.145 220.812C648.84 220.261 648.688 219.607 648.688 218.852H651.781C651.781 219.227 651.831 219.543 651.931 219.801C652.03 220.059 652.177 220.267 652.37 220.425C652.563 220.577 652.801 220.688 653.082 220.759C653.363 220.823 653.686 220.855 654.049 220.855C654.441 220.855 654.758 220.8 654.998 220.688C655.238 220.571 655.414 220.419 655.525 220.231C655.637 220.038 655.692 219.827 655.692 219.599ZM667.505 220.891L671.073 223.721L669.157 225.338L665.65 222.508L667.505 220.891ZM671.223 216.347V216.865C671.223 217.844 671.085 218.723 670.81 219.502C670.54 220.275 670.153 220.938 669.649 221.488C669.151 222.033 668.562 222.452 667.883 222.745C667.203 223.032 666.453 223.176 665.633 223.176C664.807 223.176 664.051 223.032 663.365 222.745C662.686 222.452 662.094 222.033 661.59 221.488C661.092 220.938 660.705 220.275 660.43 219.502C660.16 218.723 660.025 217.844 660.025 216.865V216.347C660.025 215.368 660.16 214.489 660.43 213.71C660.705 212.931 661.089 212.269 661.581 211.724C662.079 211.173 662.668 210.754 663.348 210.467C664.033 210.174 664.789 210.027 665.615 210.027C666.436 210.027 667.186 210.174 667.865 210.467C668.551 210.754 669.143 211.173 669.641 211.724C670.145 212.269 670.534 212.931 670.81 213.71C671.085 214.489 671.223 215.368 671.223 216.347ZM668.085 216.865V216.329C668.085 215.696 668.029 215.14 667.918 214.659C667.812 214.173 667.654 213.766 667.443 213.438C667.232 213.109 666.972 212.863 666.661 212.699C666.356 212.529 666.008 212.444 665.615 212.444C665.205 212.444 664.848 212.529 664.543 212.699C664.238 212.863 663.983 213.109 663.778 213.438C663.573 213.766 663.418 214.173 663.312 214.659C663.213 215.14 663.163 215.696 663.163 216.329V216.865C663.163 217.492 663.213 218.049 663.312 218.535C663.418 219.016 663.573 219.423 663.778 219.757C663.989 220.091 664.247 220.343 664.552 220.513C664.862 220.683 665.223 220.768 665.633 220.768C666.025 220.768 666.374 220.683 666.679 220.513C666.983 220.343 667.238 220.091 667.443 219.757C667.654 219.423 667.812 219.016 667.918 218.535C668.029 218.049 668.085 217.492 668.085 216.865ZM681.251 220.627V223H674.782V220.627H681.251ZM675.881 210.203V223H672.796V210.203H675.881Z" fill="white"/>
<rect x="724" y="196" width="100" height="41" rx="3" fill="#424242"/>
<rect x="724" y="196" width="100" height="41" rx="3" stroke="#424242" stroke-width="4"/>
<path d="M754.603 220.891L758.171 223.721L756.255 225.338L752.748 222.508L754.603 220.891ZM758.32 216.347V216.865C758.32 217.844 758.183 218.723 757.907 219.502C757.638 220.275 757.251 220.938 756.747 221.488C756.249 222.033 755.66 222.452 754.98 222.745C754.301 223.032 753.551 223.176 752.73 223.176C751.904 223.176 751.148 223.032 750.463 222.745C749.783 222.452 749.191 222.033 748.688 221.488C748.189 220.938 747.803 220.275 747.527 219.502C747.258 218.723 747.123 217.844 747.123 216.865V216.347C747.123 215.368 747.258 214.489 747.527 213.71C747.803 212.931 748.187 212.269 748.679 211.724C749.177 211.173 749.766 210.754 750.445 210.467C751.131 210.174 751.887 210.027 752.713 210.027C753.533 210.027 754.283 210.174 754.963 210.467C755.648 210.754 756.24 211.173 756.738 211.724C757.242 212.269 757.632 212.931 757.907 213.71C758.183 214.489 758.32 215.368 758.32 216.347ZM755.183 216.865V216.329C755.183 215.696 755.127 215.14 755.016 214.659C754.91 214.173 754.752 213.766 754.541 213.438C754.33 213.109 754.069 212.863 753.759 212.699C753.454 212.529 753.105 212.444 752.713 212.444C752.303 212.444 751.945 212.529 751.641 212.699C751.336 212.863 751.081 213.109 750.876 213.438C750.671 213.766 750.516 214.173 750.41 214.659C750.311 215.14 750.261 215.696 750.261 216.329V216.865C750.261 217.492 750.311 218.049 750.41 218.535C750.516 219.016 750.671 219.423 750.876 219.757C751.087 220.091 751.345 220.343 751.649 220.513C751.96 220.683 752.32 220.768 752.73 220.768C753.123 220.768 753.472 220.683 753.776 220.513C754.081 220.343 754.336 220.091 754.541 219.757C754.752 219.423 754.91 219.016 755.016 218.535C755.127 218.049 755.183 217.492 755.183 216.865ZM765.22 220.82V209.5H768.199V223H765.527L765.22 220.82ZM759.384 218.359V218.175C759.384 217.454 759.463 216.798 759.621 216.206C759.779 215.608 760.014 215.096 760.324 214.668C760.635 214.234 761.021 213.9 761.484 213.666C761.947 213.432 762.48 213.314 763.084 213.314C763.623 213.314 764.095 213.44 764.499 213.692C764.903 213.938 765.249 214.284 765.536 214.729C765.823 215.175 766.058 215.696 766.239 216.294C766.421 216.886 766.559 217.524 766.652 218.21V218.43C766.559 219.074 766.421 219.684 766.239 220.258C766.058 220.826 765.823 221.33 765.536 221.77C765.249 222.209 764.9 222.555 764.49 222.807C764.086 223.053 763.611 223.176 763.066 223.176C762.463 223.176 761.93 223.056 761.467 222.815C761.01 222.575 760.626 222.238 760.315 221.805C760.011 221.371 759.779 220.861 759.621 220.275C759.463 219.689 759.384 219.051 759.384 218.359ZM762.346 218.175V218.359C762.346 218.717 762.369 219.048 762.416 219.353C762.463 219.657 762.542 219.927 762.653 220.161C762.771 220.39 762.923 220.568 763.11 220.697C763.304 220.826 763.541 220.891 763.822 220.891C764.203 220.891 764.517 220.8 764.763 220.618C765.015 220.437 765.199 220.179 765.316 219.845C765.439 219.511 765.492 219.118 765.475 218.667V217.973C765.486 217.586 765.46 217.246 765.396 216.953C765.331 216.654 765.229 216.405 765.088 216.206C764.953 216.007 764.78 215.857 764.569 215.758C764.364 215.652 764.121 215.6 763.84 215.6C763.564 215.6 763.33 215.664 763.137 215.793C762.949 215.922 762.797 216.104 762.68 216.338C762.562 216.566 762.478 216.839 762.425 217.155C762.372 217.466 762.346 217.806 762.346 218.175ZM772.866 215.846V223H769.904V213.49H772.673L772.866 215.846ZM775.679 213.42L775.626 216.171C775.509 216.159 775.351 216.145 775.151 216.127C774.952 216.109 774.785 216.101 774.65 216.101C774.305 216.101 774.006 216.142 773.754 216.224C773.508 216.3 773.303 216.417 773.139 216.575C772.98 216.728 772.863 216.921 772.787 217.155C772.717 217.39 772.685 217.662 772.69 217.973L772.154 217.621C772.154 216.982 772.216 216.402 772.339 215.881C772.468 215.354 772.649 214.899 772.884 214.519C773.118 214.132 773.402 213.836 773.736 213.631C774.07 213.42 774.445 213.314 774.861 213.314C775.008 213.314 775.151 213.323 775.292 213.341C775.438 213.358 775.567 213.385 775.679 213.42ZM781.374 220.609V216.689C781.374 216.42 781.336 216.188 781.26 215.995C781.184 215.802 781.063 215.652 780.899 215.547C780.735 215.436 780.516 215.38 780.24 215.38C780.018 215.38 779.827 215.418 779.669 215.494C779.511 215.57 779.391 215.685 779.309 215.837C779.227 215.989 779.186 216.183 779.186 216.417H776.224C776.224 215.978 776.32 215.57 776.514 215.195C776.713 214.814 776.994 214.483 777.357 214.202C777.727 213.921 778.166 213.704 778.676 213.552C779.191 213.394 779.766 213.314 780.398 213.314C781.154 213.314 781.828 213.44 782.42 213.692C783.018 213.944 783.489 214.322 783.835 214.826C784.181 215.324 784.354 215.951 784.354 216.707V220.601C784.354 221.222 784.389 221.693 784.459 222.016C784.529 222.332 784.629 222.61 784.758 222.851V223H781.787C781.646 222.707 781.541 222.35 781.471 221.928C781.406 221.5 781.374 221.061 781.374 220.609ZM781.734 217.19L781.752 218.772H780.442C780.167 218.772 779.933 218.811 779.739 218.887C779.552 218.963 779.399 219.068 779.282 219.203C779.171 219.332 779.089 219.479 779.036 219.643C778.989 219.807 778.966 219.979 778.966 220.161C778.966 220.337 779.007 220.495 779.089 220.636C779.177 220.771 779.294 220.876 779.44 220.952C779.587 221.028 779.751 221.066 779.933 221.066C780.261 221.066 780.539 221.005 780.768 220.882C781.002 220.753 781.181 220.598 781.304 220.416C781.427 220.234 781.488 220.064 781.488 219.906L782.139 221.119C782.021 221.354 781.887 221.591 781.734 221.831C781.588 222.071 781.403 222.294 781.181 222.499C780.964 222.698 780.697 222.862 780.381 222.991C780.064 223.114 779.681 223.176 779.229 223.176C778.644 223.176 778.104 223.056 777.612 222.815C777.126 222.575 776.736 222.241 776.443 221.813C776.15 221.38 776.004 220.882 776.004 220.319C776.004 219.827 776.092 219.388 776.268 219.001C776.449 218.614 776.722 218.286 777.085 218.017C777.448 217.747 777.911 217.542 778.474 217.401C779.036 217.261 779.698 217.19 780.46 217.19H781.734ZM788.906 215.521V223H785.944V213.49H788.722L788.906 215.521ZM788.555 217.92L787.86 217.938C787.86 217.211 787.948 216.563 788.124 215.995C788.3 215.421 788.549 214.935 788.871 214.536C789.193 214.138 789.577 213.836 790.022 213.631C790.474 213.42 790.975 213.314 791.525 213.314C791.965 213.314 792.366 213.379 792.729 213.508C793.099 213.637 793.415 213.845 793.679 214.132C793.948 214.419 794.153 214.8 794.294 215.274C794.44 215.743 794.514 216.323 794.514 217.015V223H791.534V217.006C791.534 216.625 791.481 216.335 791.376 216.136C791.271 215.931 791.118 215.79 790.919 215.714C790.72 215.638 790.477 215.6 790.189 215.6C789.885 215.6 789.627 215.658 789.416 215.775C789.205 215.893 789.035 216.057 788.906 216.268C788.783 216.473 788.692 216.716 788.634 216.997C788.581 217.278 788.555 217.586 788.555 217.92ZM801.167 213.49V215.547H795.437V213.49H801.167ZM796.641 211.126H799.603V219.897C799.603 220.149 799.632 220.346 799.69 220.486C799.749 220.621 799.849 220.718 799.989 220.776C800.136 220.829 800.329 220.855 800.569 220.855C800.739 220.855 800.88 220.853 800.991 220.847C801.103 220.835 801.208 220.82 801.308 220.803V222.921C801.056 223.003 800.792 223.064 800.517 223.105C800.241 223.152 799.948 223.176 799.638 223.176C799.005 223.176 798.463 223.076 798.012 222.877C797.566 222.678 797.227 222.364 796.992 221.937C796.758 221.509 796.641 220.952 796.641 220.267V211.126Z" fill="white"/>
<path d="M1066 0H1348C1356.28 0 1363 6.71573 1363 15V282C1363 290.284 1356.28 297 1348 297H1066V0Z" fill="white"/>
<path d="M1275.02 141.19C1275.02 124.58 1260.26 116.03 1245.24 116.19C1230.22 116.03 1215.46 124.58 1215.46 141.19C1215.52 159.38 1215.41 175.29 1215.48 214.1C1215.52 232.7 1230.75 233.73 1230.75 233.73H1259.72C1259.72 233.73 1274.95 232.7 1274.99 214.1C1275.06 175.29 1274.95 159.37 1275.01 141.19H1275.02Z" fill="#D7BAFB"/>
<path d="M1246.38 63.27C1232.7 63.27 1221.61 75.03 1221.61 89.54C1221.61 104.05 1232.7 115.81 1246.38 115.81C1260.06 115.81 1271.15 104.05 1271.15 89.54C1271.15 75.03 1260.06 63.27 1246.38 63.27Z" fill="#D7BAFB"/>
<path d="M1265.44 184.18C1271.67 188.86 1286.12 186.99 1286.92 174.97C1287.71 163.04 1274.52 135.37 1274.52 135.37C1274.52 135.37 1259.08 179.41 1265.44 184.19V184.18Z" fill="#D7BAFB"/>
<path d="M1183.39 63.27C1169.71 63.27 1158.62 75.03 1158.62 89.54C1158.62 104.05 1169.71 115.81 1183.39 115.81C1197.07 115.81 1208.16 104.05 1208.16 89.54C1208.16 75.03 1197.07 63.27 1183.39 63.27Z" fill="#9D75ED"/>
<path d="M1215.45 141.19C1215.45 124.58 1200.69 116.03 1185.67 116.19C1170.65 116.03 1155.89 124.58 1155.89 141.19C1155.95 159.38 1155.84 175.29 1155.91 214.1C1155.95 232.7 1171.18 233.73 1171.18 233.73H1200.15C1200.15 233.73 1215.38 232.7 1215.42 214.1C1215.5 175.29 1215.38 159.37 1215.44 141.19H1215.45Z" fill="#9D75ED"/>
<path d="M1142.07 174.96C1142.87 186.89 1159.69 188.99 1166.05 184.22C1172.41 179.45 1158.62 129.91 1158.62 129.91C1158.62 129.91 1141.27 163.03 1142.07 174.96Z" fill="#9D75ED"/>
<path d="M1192.77 147.28C1186.57 150.38 1158.62 129.92 1158.62 129.92C1156.51 128.43 1152.51 131.89 1151.49 133.92C1150.47 135.95 1149.94 140.48 1152.61 142.24C1152.61 142.24 1185.14 167.57 1192.77 164.47C1200.41 161.37 1232.66 138.18 1232.66 138.18C1233.97 131.4 1228.76 119.88 1228.76 119.88C1228.76 119.88 1198.97 144.18 1192.77 147.28Z" fill="#D7BAFB"/>
<path d="M1267.45 124.13C1267.45 124.13 1244.66 142.14 1241.19 142.31C1238.44 142.44 1205.27 121.74 1205.27 121.74C1202.63 128.12 1199.69 135.95 1199.69 135.95C1199.69 135.95 1238.92 158.26 1242.26 158.26C1249.42 158.26 1272.64 137.47 1274.44 135.72C1274.75 135.42 1277.84 131.54 1275.02 127.12C1273.27 124 1269.24 122.83 1267.45 124.14V124.13Z" fill="#9D75ED"/>
</svg>
