<svg width="1363" height="163" viewBox="0 0 1363 163" fill="none" xmlns="http://www.w3.org/2000/svg">
<path d="M0 15C0 6.71573 6.71573 0 15 0H37V163H15C6.71573 163 0 156.284 0 148V15Z" fill="#D5BBFB"/>
<rect width="1097" height="163" transform="translate(37)" fill="#F0F0F0"/>
<path d="M102.152 43.9375V61H98.6484V43.9375H102.152ZM107.402 43.9375V46.6914H93.4805V43.9375H107.402ZM114.258 58.1406V52.4922C114.258 52.0859 114.191 51.7383 114.059 51.4492C113.926 51.1523 113.719 50.9219 113.438 50.7578C113.164 50.5938 112.809 50.5117 112.371 50.5117C111.996 50.5117 111.672 50.5781 111.398 50.7109C111.125 50.8359 110.914 51.0195 110.766 51.2617C110.617 51.4961 110.543 51.7734 110.543 52.0938H107.168C107.168 51.5547 107.293 51.043 107.543 50.5586C107.793 50.0742 108.156 49.6484 108.633 49.2812C109.109 48.9062 109.676 48.6133 110.332 48.4023C110.996 48.1914 111.738 48.0859 112.559 48.0859C113.543 48.0859 114.418 48.25 115.184 48.5781C115.949 48.9062 116.551 49.3984 116.988 50.0547C117.434 50.7109 117.656 51.5312 117.656 52.5156V57.9414C117.656 58.6367 117.699 59.207 117.785 59.6523C117.871 60.0898 117.996 60.4727 118.16 60.8008V61H114.75C114.586 60.6562 114.461 60.2266 114.375 59.7109C114.297 59.1875 114.258 58.6641 114.258 58.1406ZM114.703 53.2773L114.727 55.1875H112.84C112.395 55.1875 112.008 55.2383 111.68 55.3398C111.352 55.4414 111.082 55.5859 110.871 55.7734C110.66 55.9531 110.504 56.1641 110.402 56.4062C110.309 56.6484 110.262 56.9141 110.262 57.2031C110.262 57.4922 110.328 57.7539 110.461 57.9883C110.594 58.2148 110.785 58.3945 111.035 58.5273C111.285 58.6523 111.578 58.7148 111.914 58.7148C112.422 58.7148 112.863 58.6133 113.238 58.4102C113.613 58.207 113.902 57.957 114.105 57.6602C114.316 57.3633 114.426 57.082 114.434 56.8164L115.324 58.2461C115.199 58.5664 115.027 58.8984 114.809 59.2422C114.598 59.5859 114.328 59.9102 114 60.2148C113.672 60.5117 113.277 60.7578 112.816 60.9531C112.355 61.1406 111.809 61.2344 111.176 61.2344C110.371 61.2344 109.641 61.0742 108.984 60.7539C108.336 60.4258 107.82 59.9766 107.438 59.4062C107.062 58.8281 106.875 58.1719 106.875 57.4375C106.875 56.7734 107 56.1836 107.25 55.668C107.5 55.1523 107.867 54.7188 108.352 54.3672C108.844 54.0078 109.457 53.7383 110.191 53.5586C110.926 53.3711 111.777 53.2773 112.746 53.2773H114.703ZM123.562 51.0273V61H120.188V48.3203H123.352L123.562 51.0273ZM123.07 54.2148H122.156C122.156 53.2773 122.277 52.4336 122.52 51.6836C122.762 50.9258 123.102 50.2812 123.539 49.75C123.977 49.2109 124.496 48.8008 125.098 48.5195C125.707 48.2305 126.387 48.0859 127.137 48.0859C127.73 48.0859 128.273 48.1719 128.766 48.3438C129.258 48.5156 129.68 48.7891 130.031 49.1641C130.391 49.5391 130.664 50.0352 130.852 50.6523C131.047 51.2695 131.145 52.0234 131.145 52.9141V61H127.746V52.9023C127.746 52.3398 127.668 51.9023 127.512 51.5898C127.355 51.2773 127.125 51.0586 126.82 50.9336C126.523 50.8008 126.156 50.7344 125.719 50.7344C125.266 50.7344 124.871 50.8242 124.535 51.0039C124.207 51.1836 123.934 51.4336 123.715 51.7539C123.504 52.0664 123.344 52.4336 123.234 52.8555C123.125 53.2773 123.07 53.7305 123.07 54.2148ZM141.199 58.2344V43H144.598V61H141.539L141.199 58.2344ZM133.184 54.8125V54.5664C133.184 53.5977 133.293 52.7188 133.512 51.9297C133.73 51.1328 134.051 50.4492 134.473 49.8789C134.895 49.3086 135.414 48.8672 136.031 48.5547C136.648 48.2422 137.352 48.0859 138.141 48.0859C138.883 48.0859 139.531 48.2422 140.086 48.5547C140.648 48.8672 141.125 49.3125 141.516 49.8906C141.914 50.4609 142.234 51.1367 142.477 51.918C142.719 52.6914 142.895 53.5391 143.004 54.4609V55C142.895 55.8828 142.719 56.7031 142.477 57.4609C142.234 58.2188 141.914 58.8828 141.516 59.4531C141.125 60.0156 140.648 60.4531 140.086 60.7656C139.523 61.0781 138.867 61.2344 138.117 61.2344C137.328 61.2344 136.625 61.0742 136.008 60.7539C135.398 60.4336 134.883 59.9844 134.461 59.4062C134.047 58.8281 133.73 58.1484 133.512 57.3672C133.293 56.5859 133.184 55.7344 133.184 54.8125ZM136.559 54.5664V54.8125C136.559 55.3359 136.598 55.8242 136.676 56.2773C136.762 56.7305 136.898 57.1328 137.086 57.4844C137.281 57.8281 137.531 58.0977 137.836 58.293C138.148 58.4805 138.527 58.5742 138.973 58.5742C139.551 58.5742 140.027 58.4453 140.402 58.1875C140.777 57.9219 141.062 57.5586 141.258 57.0977C141.461 56.6367 141.578 56.1055 141.609 55.5039V53.9688C141.586 53.4766 141.516 53.0352 141.398 52.6445C141.289 52.2461 141.125 51.9062 140.906 51.625C140.695 51.3438 140.43 51.125 140.109 50.9688C139.797 50.8125 139.426 50.7344 138.996 50.7344C138.559 50.7344 138.184 50.8359 137.871 51.0391C137.559 51.2344 137.305 51.5039 137.109 51.8477C136.922 52.1914 136.781 52.5977 136.688 53.0664C136.602 53.5273 136.559 54.0273 136.559 54.5664ZM153.07 61.2344C152.086 61.2344 151.203 61.0781 150.422 60.7656C149.641 60.4453 148.977 60.0039 148.43 59.4414C147.891 58.8789 147.477 58.2266 147.188 57.4844C146.898 56.7344 146.754 55.9375 146.754 55.0938V54.625C146.754 53.6641 146.891 52.7852 147.164 51.9883C147.438 51.1914 147.828 50.5 148.336 49.9141C148.852 49.3281 149.477 48.8789 150.211 48.5664C150.945 48.2461 151.773 48.0859 152.695 48.0859C153.594 48.0859 154.391 48.2344 155.086 48.5312C155.781 48.8281 156.363 49.25 156.832 49.7969C157.309 50.3438 157.668 51 157.91 51.7656C158.152 52.5234 158.273 53.3672 158.273 54.2969V55.7031H148.195V53.4531H154.957V53.1953C154.957 52.7266 154.871 52.3086 154.699 51.9414C154.535 51.5664 154.285 51.2695 153.949 51.0508C153.613 50.832 153.184 50.7227 152.66 50.7227C152.215 50.7227 151.832 50.8203 151.512 51.0156C151.191 51.2109 150.93 51.4844 150.727 51.8359C150.531 52.1875 150.383 52.6016 150.281 53.0781C150.188 53.5469 150.141 54.0625 150.141 54.625V55.0938C150.141 55.6016 150.211 56.0703 150.352 56.5C150.5 56.9297 150.707 57.3008 150.973 57.6133C151.246 57.9258 151.574 58.168 151.957 58.3398C152.348 58.5117 152.789 58.5977 153.281 58.5977C153.891 58.5977 154.457 58.4805 154.98 58.2461C155.512 58.0039 155.969 57.6406 156.352 57.1562L157.992 58.9375C157.727 59.3203 157.363 59.6875 156.902 60.0391C156.449 60.3906 155.902 60.6797 155.262 60.9062C154.621 61.125 153.891 61.2344 153.07 61.2344ZM163.57 50.9453V61H160.184V48.3203H163.359L163.57 50.9453ZM163.102 54.2148H162.164C162.164 53.332 162.27 52.5195 162.48 51.7773C162.699 51.0273 163.016 50.3789 163.43 49.832C163.852 49.2773 164.371 48.8477 164.988 48.543C165.605 48.2383 166.32 48.0859 167.133 48.0859C167.695 48.0859 168.211 48.1719 168.68 48.3438C169.148 48.5078 169.551 48.7695 169.887 49.1289C170.23 49.4805 170.496 49.9414 170.684 50.5117C170.871 51.0742 170.965 51.75 170.965 52.5391V61H167.59V52.9141C167.59 52.3359 167.512 51.8906 167.355 51.5781C167.199 51.2656 166.977 51.0469 166.688 50.9219C166.406 50.7969 166.066 50.7344 165.668 50.7344C165.23 50.7344 164.848 50.8242 164.52 51.0039C164.199 51.1836 163.934 51.4336 163.723 51.7539C163.512 52.0664 163.355 52.4336 163.254 52.8555C163.152 53.2773 163.102 53.7305 163.102 54.2148ZM170.648 53.8281L169.441 53.9805C169.441 53.1523 169.543 52.3828 169.746 51.6719C169.957 50.9609 170.266 50.3359 170.672 49.7969C171.086 49.2578 171.598 48.8398 172.207 48.543C172.816 48.2383 173.52 48.0859 174.316 48.0859C174.926 48.0859 175.48 48.1758 175.98 48.3555C176.48 48.5273 176.906 48.8047 177.258 49.1875C177.617 49.5625 177.891 50.0547 178.078 50.6641C178.273 51.2734 178.371 52.0195 178.371 52.9023V61H174.984V52.9023C174.984 52.3164 174.906 51.8711 174.75 51.5664C174.602 51.2539 174.383 51.0391 174.094 50.9219C173.812 50.7969 173.477 50.7344 173.086 50.7344C172.68 50.7344 172.324 50.8164 172.02 50.9805C171.715 51.1367 171.461 51.3555 171.258 51.6367C171.055 51.918 170.902 52.2461 170.801 52.6211C170.699 52.9883 170.648 53.3906 170.648 53.8281Z" fill="#888888"/>
<path d="M106.688 119H99.1172L99.1641 112.672H106.688C108.25 112.672 109.57 112.297 110.648 111.547C111.742 110.797 112.57 109.68 113.133 108.195C113.711 106.695 114 104.852 114 102.664V101.188C114 99.5469 113.836 98.1094 113.508 96.875C113.195 95.625 112.727 94.5859 112.102 93.7578C111.477 92.9141 110.695 92.2812 109.758 91.8594C108.836 91.4375 107.773 91.2266 106.57 91.2266H98.9766V84.875H106.57C108.883 84.875 111 85.2734 112.922 86.0703C114.859 86.8516 116.531 87.9766 117.938 89.4453C119.359 90.8984 120.453 92.625 121.219 94.625C122 96.6094 122.391 98.8125 122.391 101.234V102.664C122.391 105.07 122 107.273 121.219 109.273C120.453 111.273 119.367 113 117.961 114.453C116.555 115.906 114.891 117.031 112.969 117.828C111.062 118.609 108.969 119 106.688 119ZM103.828 84.875V119H95.6016V84.875H103.828ZM138.586 119.469C136.523 119.469 134.68 119.148 133.055 118.508C131.43 117.852 130.055 116.953 128.93 115.812C127.82 114.672 126.969 113.359 126.375 111.875C125.797 110.391 125.508 108.82 125.508 107.164V106.273C125.508 104.414 125.766 102.695 126.281 101.117C126.797 99.5234 127.562 98.1328 128.578 96.9453C129.594 95.7578 130.867 94.8359 132.398 94.1797C133.93 93.5078 135.711 93.1719 137.742 93.1719C139.539 93.1719 141.148 93.4609 142.57 94.0391C143.992 94.6172 145.195 95.4453 146.18 96.5234C147.18 97.6016 147.938 98.9062 148.453 100.438C148.984 101.969 149.25 103.688 149.25 105.594V108.805H128.531V103.859H141.539V103.25C141.555 102.406 141.406 101.688 141.094 101.094C140.797 100.5 140.359 100.047 139.781 99.7344C139.203 99.4219 138.5 99.2656 137.672 99.2656C136.812 99.2656 136.102 99.4531 135.539 99.8281C134.992 100.203 134.562 100.719 134.25 101.375C133.953 102.016 133.742 102.758 133.617 103.602C133.492 104.445 133.43 105.336 133.43 106.273V107.164C133.43 108.102 133.555 108.953 133.805 109.719C134.07 110.484 134.445 111.141 134.93 111.688C135.43 112.219 136.023 112.633 136.711 112.93C137.414 113.227 138.211 113.375 139.102 113.375C140.18 113.375 141.242 113.172 142.289 112.766C143.336 112.359 144.234 111.688 144.984 110.75L148.57 115.016C148.055 115.75 147.32 116.461 146.367 117.148C145.43 117.836 144.305 118.398 142.992 118.836C141.68 119.258 140.211 119.469 138.586 119.469ZM160.43 99.0078V119H152.531V93.6406H159.938L160.43 99.0078ZM159.469 105.453L157.664 105.5C157.664 103.719 157.875 102.078 158.297 100.578C158.719 99.0781 159.344 97.7734 160.172 96.6641C161 95.5547 162.016 94.6953 163.219 94.0859C164.438 93.4766 165.844 93.1719 167.438 93.1719C168.547 93.1719 169.555 93.3438 170.461 93.6875C171.367 94.0156 172.148 94.5391 172.805 95.2578C173.461 95.9609 173.961 96.8828 174.305 98.0234C174.664 99.1484 174.844 100.5 174.844 102.078V119H166.945V103.086C166.945 102.008 166.82 101.195 166.57 100.648C166.336 100.102 165.992 99.7344 165.539 99.5469C165.086 99.3594 164.531 99.2656 163.875 99.2656C163.188 99.2656 162.57 99.4219 162.023 99.7344C161.477 100.047 161.008 100.484 160.617 101.047C160.242 101.594 159.953 102.242 159.75 102.992C159.562 103.742 159.469 104.562 159.469 105.453ZM173.953 105.453L171.75 105.5C171.75 103.719 171.945 102.078 172.336 100.578C172.742 99.0781 173.344 97.7734 174.141 96.6641C174.953 95.5547 175.961 94.6953 177.164 94.0859C178.367 93.4766 179.766 93.1719 181.359 93.1719C182.516 93.1719 183.578 93.3438 184.547 93.6875C185.516 94.0312 186.352 94.5859 187.055 95.3516C187.758 96.1172 188.305 97.1328 188.695 98.3984C189.086 99.6484 189.281 101.195 189.281 103.039V119H181.359V103.039C181.359 101.992 181.234 101.203 180.984 100.672C180.75 100.125 180.406 99.7578 179.953 99.5703C179.5 99.3672 178.961 99.2656 178.336 99.2656C177.586 99.2656 176.938 99.4219 176.391 99.7344C175.844 100.047 175.383 100.484 175.008 101.047C174.648 101.594 174.383 102.242 174.211 102.992C174.039 103.742 173.953 104.562 173.953 105.453ZM192.82 106.578V106.086C192.82 104.227 193.086 102.516 193.617 100.953C194.148 99.375 194.93 98.0078 195.961 96.8516C196.992 95.6953 198.266 94.7969 199.781 94.1562C201.297 93.5 203.047 93.1719 205.031 93.1719C207.031 93.1719 208.789 93.5 210.305 94.1562C211.836 94.7969 213.117 95.6953 214.148 96.8516C215.18 98.0078 215.961 99.375 216.492 100.953C217.023 102.516 217.289 104.227 217.289 106.086V106.578C217.289 108.422 217.023 110.133 216.492 111.711C215.961 113.273 215.18 114.641 214.148 115.812C213.117 116.969 211.844 117.867 210.328 118.508C208.812 119.148 207.062 119.469 205.078 119.469C203.094 119.469 201.336 119.148 199.805 118.508C198.273 117.867 196.992 116.969 195.961 115.812C194.93 114.641 194.148 113.273 193.617 111.711C193.086 110.133 192.82 108.422 192.82 106.578ZM200.719 106.086V106.578C200.719 107.531 200.789 108.422 200.93 109.25C201.07 110.078 201.305 110.805 201.633 111.43C201.961 112.039 202.406 112.516 202.969 112.859C203.531 113.203 204.234 113.375 205.078 113.375C205.906 113.375 206.594 113.203 207.141 112.859C207.703 112.516 208.148 112.039 208.477 111.43C208.805 110.805 209.039 110.078 209.18 109.25C209.32 108.422 209.391 107.531 209.391 106.578V106.086C209.391 105.164 209.32 104.297 209.18 103.484C209.039 102.656 208.805 101.93 208.477 101.305C208.148 100.664 207.703 100.164 207.141 99.8047C206.578 99.4453 205.875 99.2656 205.031 99.2656C204.203 99.2656 203.508 99.4453 202.945 99.8047C202.398 100.164 201.961 100.664 201.633 101.305C201.305 101.93 201.07 102.656 200.93 103.484C200.789 104.297 200.719 105.164 200.719 106.086Z" fill="black"/>
<path d="M1134 0H1348C1356.28 0 1363 6.71573 1363 15V148C1363 156.284 1356.28 163 1348 163H1134V0Z" fill="#52379E"/>
<path d="M1280.07 47.5H1216.93L1214.5 49.9286V113.071L1216.93 115.5H1280.07L1282.5 113.071V49.9286L1280.07 47.5ZM1277.64 110.643H1233.93V100.929H1245.1C1246.56 103.843 1249.96 105.786 1253.36 105.786C1258.7 105.786 1263.07 101.414 1263.07 96.0714C1263.07 90.7286 1258.7 86.3571 1253.36 86.3571C1248.01 86.3571 1243.64 90.7286 1243.64 96.0714H1229.07V110.643H1219.36V52.3571H1229.07V63.5286C1226.16 64.9857 1224.21 68.3857 1224.21 71.7857C1224.21 77.1286 1228.59 81.5 1233.93 81.5C1239.27 81.5 1243.64 77.1286 1243.64 71.7857H1253.36C1253.36 77.1286 1257.73 81.5 1263.07 81.5C1268.41 81.5 1272.79 77.1286 1272.79 71.7857C1272.79 66.4429 1268.41 62.0714 1263.07 62.0714C1259.67 62.0714 1256.27 64.0143 1254.81 66.9286H1242.19C1240.73 64.0143 1237.33 62.0714 1233.93 62.0714V52.3571H1277.64V110.643ZM1248.5 96.0714C1248.5 93.1571 1250.44 91.2143 1253.36 91.2143C1256.27 91.2143 1258.21 93.1571 1258.21 96.0714C1258.21 98.9857 1256.27 100.929 1253.36 100.929C1250.44 100.929 1248.5 98.9857 1248.5 96.0714ZM1233.93 66.9286C1236.84 66.9286 1238.79 68.8714 1238.79 71.7857C1238.79 74.7 1236.84 76.6429 1233.93 76.6429C1231.01 76.6429 1229.07 74.7 1229.07 71.7857C1229.07 68.8714 1231.01 66.9286 1233.93 66.9286ZM1263.07 66.9286C1265.99 66.9286 1267.93 68.8714 1267.93 71.7857C1267.93 74.7 1265.99 76.6429 1263.07 76.6429C1260.16 76.6429 1258.21 74.7 1258.21 71.7857C1258.21 68.8714 1260.16 66.9286 1263.07 66.9286Z" fill="white"/>
</svg>
