<svg width="1363" height="163" viewBox="0 0 1363 163" fill="none" xmlns="http://www.w3.org/2000/svg">
<path d="M0 15C0 6.71573 6.71573 0 15 0H37V163H15C6.71573 163 0 156.284 0 148V15Z" fill="#D5BBFB"/>
<rect width="1097" height="163" transform="translate(37)" fill="#F0F0F0"/>
<path d="M102.152 43.9375V61H98.6484V43.9375H102.152ZM107.402 43.9375V46.6914H93.4805V43.9375H107.402ZM114.258 58.1406V52.4922C114.258 52.0859 114.191 51.7383 114.059 51.4492C113.926 51.1523 113.719 50.9219 113.438 50.7578C113.164 50.5938 112.809 50.5117 112.371 50.5117C111.996 50.5117 111.672 50.5781 111.398 50.7109C111.125 50.8359 110.914 51.0195 110.766 51.2617C110.617 51.4961 110.543 51.7734 110.543 52.0938H107.168C107.168 51.5547 107.293 51.043 107.543 50.5586C107.793 50.0742 108.156 49.6484 108.633 49.2812C109.109 48.9062 109.676 48.6133 110.332 48.4023C110.996 48.1914 111.738 48.0859 112.559 48.0859C113.543 48.0859 114.418 48.25 115.184 48.5781C115.949 48.9062 116.551 49.3984 116.988 50.0547C117.434 50.7109 117.656 51.5312 117.656 52.5156V57.9414C117.656 58.6367 117.699 59.207 117.785 59.6523C117.871 60.0898 117.996 60.4727 118.16 60.8008V61H114.75C114.586 60.6562 114.461 60.2266 114.375 59.7109C114.297 59.1875 114.258 58.6641 114.258 58.1406ZM114.703 53.2773L114.727 55.1875H112.84C112.395 55.1875 112.008 55.2383 111.68 55.3398C111.352 55.4414 111.082 55.5859 110.871 55.7734C110.66 55.9531 110.504 56.1641 110.402 56.4062C110.309 56.6484 110.262 56.9141 110.262 57.2031C110.262 57.4922 110.328 57.7539 110.461 57.9883C110.594 58.2148 110.785 58.3945 111.035 58.5273C111.285 58.6523 111.578 58.7148 111.914 58.7148C112.422 58.7148 112.863 58.6133 113.238 58.4102C113.613 58.207 113.902 57.957 114.105 57.6602C114.316 57.3633 114.426 57.082 114.434 56.8164L115.324 58.2461C115.199 58.5664 115.027 58.8984 114.809 59.2422C114.598 59.5859 114.328 59.9102 114 60.2148C113.672 60.5117 113.277 60.7578 112.816 60.9531C112.355 61.1406 111.809 61.2344 111.176 61.2344C110.371 61.2344 109.641 61.0742 108.984 60.7539C108.336 60.4258 107.82 59.9766 107.438 59.4062C107.062 58.8281 106.875 58.1719 106.875 57.4375C106.875 56.7734 107 56.1836 107.25 55.668C107.5 55.1523 107.867 54.7188 108.352 54.3672C108.844 54.0078 109.457 53.7383 110.191 53.5586C110.926 53.3711 111.777 53.2773 112.746 53.2773H114.703ZM123.562 51.0273V61H120.188V48.3203H123.352L123.562 51.0273ZM123.07 54.2148H122.156C122.156 53.2773 122.277 52.4336 122.52 51.6836C122.762 50.9258 123.102 50.2812 123.539 49.75C123.977 49.2109 124.496 48.8008 125.098 48.5195C125.707 48.2305 126.387 48.0859 127.137 48.0859C127.73 48.0859 128.273 48.1719 128.766 48.3438C129.258 48.5156 129.68 48.7891 130.031 49.1641C130.391 49.5391 130.664 50.0352 130.852 50.6523C131.047 51.2695 131.145 52.0234 131.145 52.9141V61H127.746V52.9023C127.746 52.3398 127.668 51.9023 127.512 51.5898C127.355 51.2773 127.125 51.0586 126.82 50.9336C126.523 50.8008 126.156 50.7344 125.719 50.7344C125.266 50.7344 124.871 50.8242 124.535 51.0039C124.207 51.1836 123.934 51.4336 123.715 51.7539C123.504 52.0664 123.344 52.4336 123.234 52.8555C123.125 53.2773 123.07 53.7305 123.07 54.2148ZM141.199 58.2344V43H144.598V61H141.539L141.199 58.2344ZM133.184 54.8125V54.5664C133.184 53.5977 133.293 52.7188 133.512 51.9297C133.73 51.1328 134.051 50.4492 134.473 49.8789C134.895 49.3086 135.414 48.8672 136.031 48.5547C136.648 48.2422 137.352 48.0859 138.141 48.0859C138.883 48.0859 139.531 48.2422 140.086 48.5547C140.648 48.8672 141.125 49.3125 141.516 49.8906C141.914 50.4609 142.234 51.1367 142.477 51.918C142.719 52.6914 142.895 53.5391 143.004 54.4609V55C142.895 55.8828 142.719 56.7031 142.477 57.4609C142.234 58.2188 141.914 58.8828 141.516 59.4531C141.125 60.0156 140.648 60.4531 140.086 60.7656C139.523 61.0781 138.867 61.2344 138.117 61.2344C137.328 61.2344 136.625 61.0742 136.008 60.7539C135.398 60.4336 134.883 59.9844 134.461 59.4062C134.047 58.8281 133.73 58.1484 133.512 57.3672C133.293 56.5859 133.184 55.7344 133.184 54.8125ZM136.559 54.5664V54.8125C136.559 55.3359 136.598 55.8242 136.676 56.2773C136.762 56.7305 136.898 57.1328 137.086 57.4844C137.281 57.8281 137.531 58.0977 137.836 58.293C138.148 58.4805 138.527 58.5742 138.973 58.5742C139.551 58.5742 140.027 58.4453 140.402 58.1875C140.777 57.9219 141.062 57.5586 141.258 57.0977C141.461 56.6367 141.578 56.1055 141.609 55.5039V53.9688C141.586 53.4766 141.516 53.0352 141.398 52.6445C141.289 52.2461 141.125 51.9062 140.906 51.625C140.695 51.3438 140.43 51.125 140.109 50.9688C139.797 50.8125 139.426 50.7344 138.996 50.7344C138.559 50.7344 138.184 50.8359 137.871 51.0391C137.559 51.2344 137.305 51.5039 137.109 51.8477C136.922 52.1914 136.781 52.5977 136.688 53.0664C136.602 53.5273 136.559 54.0273 136.559 54.5664ZM153.07 61.2344C152.086 61.2344 151.203 61.0781 150.422 60.7656C149.641 60.4453 148.977 60.0039 148.43 59.4414C147.891 58.8789 147.477 58.2266 147.188 57.4844C146.898 56.7344 146.754 55.9375 146.754 55.0938V54.625C146.754 53.6641 146.891 52.7852 147.164 51.9883C147.438 51.1914 147.828 50.5 148.336 49.9141C148.852 49.3281 149.477 48.8789 150.211 48.5664C150.945 48.2461 151.773 48.0859 152.695 48.0859C153.594 48.0859 154.391 48.2344 155.086 48.5312C155.781 48.8281 156.363 49.25 156.832 49.7969C157.309 50.3438 157.668 51 157.91 51.7656C158.152 52.5234 158.273 53.3672 158.273 54.2969V55.7031H148.195V53.4531H154.957V53.1953C154.957 52.7266 154.871 52.3086 154.699 51.9414C154.535 51.5664 154.285 51.2695 153.949 51.0508C153.613 50.832 153.184 50.7227 152.66 50.7227C152.215 50.7227 151.832 50.8203 151.512 51.0156C151.191 51.2109 150.93 51.4844 150.727 51.8359C150.531 52.1875 150.383 52.6016 150.281 53.0781C150.188 53.5469 150.141 54.0625 150.141 54.625V55.0938C150.141 55.6016 150.211 56.0703 150.352 56.5C150.5 56.9297 150.707 57.3008 150.973 57.6133C151.246 57.9258 151.574 58.168 151.957 58.3398C152.348 58.5117 152.789 58.5977 153.281 58.5977C153.891 58.5977 154.457 58.4805 154.98 58.2461C155.512 58.0039 155.969 57.6406 156.352 57.1562L157.992 58.9375C157.727 59.3203 157.363 59.6875 156.902 60.0391C156.449 60.3906 155.902 60.6797 155.262 60.9062C154.621 61.125 153.891 61.2344 153.07 61.2344ZM163.57 50.9453V61H160.184V48.3203H163.359L163.57 50.9453ZM163.102 54.2148H162.164C162.164 53.332 162.27 52.5195 162.48 51.7773C162.699 51.0273 163.016 50.3789 163.43 49.832C163.852 49.2773 164.371 48.8477 164.988 48.543C165.605 48.2383 166.32 48.0859 167.133 48.0859C167.695 48.0859 168.211 48.1719 168.68 48.3438C169.148 48.5078 169.551 48.7695 169.887 49.1289C170.23 49.4805 170.496 49.9414 170.684 50.5117C170.871 51.0742 170.965 51.75 170.965 52.5391V61H167.59V52.9141C167.59 52.3359 167.512 51.8906 167.355 51.5781C167.199 51.2656 166.977 51.0469 166.688 50.9219C166.406 50.7969 166.066 50.7344 165.668 50.7344C165.23 50.7344 164.848 50.8242 164.52 51.0039C164.199 51.1836 163.934 51.4336 163.723 51.7539C163.512 52.0664 163.355 52.4336 163.254 52.8555C163.152 53.2773 163.102 53.7305 163.102 54.2148ZM170.648 53.8281L169.441 53.9805C169.441 53.1523 169.543 52.3828 169.746 51.6719C169.957 50.9609 170.266 50.3359 170.672 49.7969C171.086 49.2578 171.598 48.8398 172.207 48.543C172.816 48.2383 173.52 48.0859 174.316 48.0859C174.926 48.0859 175.48 48.1758 175.98 48.3555C176.48 48.5273 176.906 48.8047 177.258 49.1875C177.617 49.5625 177.891 50.0547 178.078 50.6641C178.273 51.2734 178.371 52.0195 178.371 52.9023V61H174.984V52.9023C174.984 52.3164 174.906 51.8711 174.75 51.5664C174.602 51.2539 174.383 51.0391 174.094 50.9219C173.812 50.7969 173.477 50.7344 173.086 50.7344C172.68 50.7344 172.324 50.8164 172.02 50.9805C171.715 51.1367 171.461 51.3555 171.258 51.6367C171.055 51.918 170.902 52.2461 170.801 52.6211C170.699 52.9883 170.648 53.3906 170.648 53.8281Z" fill="#888888"/>
<path d="M106.688 119H99.1172L99.1641 112.672H106.688C108.25 112.672 109.57 112.297 110.648 111.547C111.742 110.797 112.57 109.68 113.133 108.195C113.711 106.695 114 104.852 114 102.664V101.188C114 99.5469 113.836 98.1094 113.508 96.875C113.195 95.625 112.727 94.5859 112.102 93.7578C111.477 92.9141 110.695 92.2812 109.758 91.8594C108.836 91.4375 107.773 91.2266 106.57 91.2266H98.9766V84.875H106.57C108.883 84.875 111 85.2734 112.922 86.0703C114.859 86.8516 116.531 87.9766 117.938 89.4453C119.359 90.8984 120.453 92.625 121.219 94.625C122 96.6094 122.391 98.8125 122.391 101.234V102.664C122.391 105.07 122 107.273 121.219 109.273C120.453 111.273 119.367 113 117.961 114.453C116.555 115.906 114.891 117.031 112.969 117.828C111.062 118.609 108.969 119 106.688 119ZM103.828 84.875V119H95.6016V84.875H103.828ZM138.586 119.469C136.523 119.469 134.68 119.148 133.055 118.508C131.43 117.852 130.055 116.953 128.93 115.812C127.82 114.672 126.969 113.359 126.375 111.875C125.797 110.391 125.508 108.82 125.508 107.164V106.273C125.508 104.414 125.766 102.695 126.281 101.117C126.797 99.5234 127.562 98.1328 128.578 96.9453C129.594 95.7578 130.867 94.8359 132.398 94.1797C133.93 93.5078 135.711 93.1719 137.742 93.1719C139.539 93.1719 141.148 93.4609 142.57 94.0391C143.992 94.6172 145.195 95.4453 146.18 96.5234C147.18 97.6016 147.938 98.9062 148.453 100.438C148.984 101.969 149.25 103.688 149.25 105.594V108.805H128.531V103.859H141.539V103.25C141.555 102.406 141.406 101.688 141.094 101.094C140.797 100.5 140.359 100.047 139.781 99.7344C139.203 99.4219 138.5 99.2656 137.672 99.2656C136.812 99.2656 136.102 99.4531 135.539 99.8281C134.992 100.203 134.562 100.719 134.25 101.375C133.953 102.016 133.742 102.758 133.617 103.602C133.492 104.445 133.43 105.336 133.43 106.273V107.164C133.43 108.102 133.555 108.953 133.805 109.719C134.07 110.484 134.445 111.141 134.93 111.688C135.43 112.219 136.023 112.633 136.711 112.93C137.414 113.227 138.211 113.375 139.102 113.375C140.18 113.375 141.242 113.172 142.289 112.766C143.336 112.359 144.234 111.688 144.984 110.75L148.57 115.016C148.055 115.75 147.32 116.461 146.367 117.148C145.43 117.836 144.305 118.398 142.992 118.836C141.68 119.258 140.211 119.469 138.586 119.469ZM160.43 98.5156V128.75H152.531V93.6406H159.891L160.43 98.5156ZM175.992 106.016V106.508C175.992 108.352 175.781 110.062 175.359 111.641C174.938 113.219 174.312 114.594 173.484 115.766C172.656 116.938 171.625 117.852 170.391 118.508C169.172 119.148 167.758 119.469 166.148 119.469C164.633 119.469 163.328 119.133 162.234 118.461C161.141 117.789 160.227 116.859 159.492 115.672C158.758 114.484 158.164 113.125 157.711 111.594C157.258 110.062 156.898 108.445 156.633 106.742V106.109C156.898 104.281 157.258 102.586 157.711 101.023C158.164 99.4453 158.758 98.0703 159.492 96.8984C160.227 95.7266 161.133 94.8125 162.211 94.1562C163.305 93.5 164.609 93.1719 166.125 93.1719C167.734 93.1719 169.148 93.4766 170.367 94.0859C171.602 94.6953 172.633 95.5703 173.461 96.7109C174.305 97.8359 174.938 99.1875 175.359 100.766C175.781 102.344 175.992 104.094 175.992 106.016ZM168.094 106.508V106.016C168.094 105.031 168.023 104.133 167.883 103.32C167.742 102.492 167.516 101.773 167.203 101.164C166.906 100.555 166.508 100.086 166.008 99.7578C165.508 99.4297 164.891 99.2656 164.156 99.2656C163.312 99.2656 162.602 99.3984 162.023 99.6641C161.461 99.9141 161.008 100.305 160.664 100.836C160.336 101.352 160.102 102 159.961 102.781C159.836 103.547 159.781 104.445 159.797 105.477V107.398C159.766 108.586 159.883 109.633 160.148 110.539C160.414 111.43 160.875 112.125 161.531 112.625C162.188 113.125 163.078 113.375 164.203 113.375C164.953 113.375 165.578 113.203 166.078 112.859C166.578 112.5 166.977 112.008 167.273 111.383C167.57 110.742 167.781 110.008 167.906 109.18C168.031 108.352 168.094 107.461 168.094 106.508ZM187.852 83V119H179.93V83H187.852ZM191.742 106.578V106.086C191.742 104.227 192.008 102.516 192.539 100.953C193.07 99.375 193.852 98.0078 194.883 96.8516C195.914 95.6953 197.188 94.7969 198.703 94.1562C200.219 93.5 201.969 93.1719 203.953 93.1719C205.953 93.1719 207.711 93.5 209.227 94.1562C210.758 94.7969 212.039 95.6953 213.07 96.8516C214.102 98.0078 214.883 99.375 215.414 100.953C215.945 102.516 216.211 104.227 216.211 106.086V106.578C216.211 108.422 215.945 110.133 215.414 111.711C214.883 113.273 214.102 114.641 213.07 115.812C212.039 116.969 210.766 117.867 209.25 118.508C207.734 119.148 205.984 119.469 204 119.469C202.016 119.469 200.258 119.148 198.727 118.508C197.195 117.867 195.914 116.969 194.883 115.812C193.852 114.641 193.07 113.273 192.539 111.711C192.008 110.133 191.742 108.422 191.742 106.578ZM199.641 106.086V106.578C199.641 107.531 199.711 108.422 199.852 109.25C199.992 110.078 200.227 110.805 200.555 111.43C200.883 112.039 201.328 112.516 201.891 112.859C202.453 113.203 203.156 113.375 204 113.375C204.828 113.375 205.516 113.203 206.062 112.859C206.625 112.516 207.07 112.039 207.398 111.43C207.727 110.805 207.961 110.078 208.102 109.25C208.242 108.422 208.312 107.531 208.312 106.578V106.086C208.312 105.164 208.242 104.297 208.102 103.484C207.961 102.656 207.727 101.93 207.398 101.305C207.07 100.664 206.625 100.164 206.062 99.8047C205.5 99.4453 204.797 99.2656 203.953 99.2656C203.125 99.2656 202.43 99.4453 201.867 99.8047C201.32 100.164 200.883 100.664 200.555 101.305C200.227 101.93 199.992 102.656 199.852 103.484C199.711 104.297 199.641 105.164 199.641 106.086ZM227.133 116.023L233.695 93.6406H242.18L231.984 122.773C231.766 123.414 231.477 124.102 231.117 124.836C230.758 125.586 230.266 126.297 229.641 126.969C229.016 127.641 228.211 128.188 227.227 128.609C226.258 129.031 225.055 129.242 223.617 129.242C222.852 129.242 222.289 129.203 221.93 129.125C221.586 129.062 221.055 128.945 220.336 128.773V123.125C220.539 123.125 220.711 123.125 220.852 123.125C221.008 123.125 221.18 123.125 221.367 123.125C222.211 123.125 222.883 123.039 223.383 122.867C223.898 122.695 224.289 122.445 224.555 122.117C224.836 121.789 225.055 121.391 225.211 120.922L227.133 116.023ZM225.469 93.6406L230.461 111.383L231.328 119.75H226.031L217.008 93.6406H225.469ZM252.211 99.0078V119H244.312V93.6406H251.719L252.211 99.0078ZM251.25 105.453L249.445 105.5C249.445 103.719 249.656 102.078 250.078 100.578C250.5 99.0781 251.125 97.7734 251.953 96.6641C252.781 95.5547 253.797 94.6953 255 94.0859C256.219 93.4766 257.625 93.1719 259.219 93.1719C260.328 93.1719 261.336 93.3438 262.242 93.6875C263.148 94.0156 263.93 94.5391 264.586 95.2578C265.242 95.9609 265.742 96.8828 266.086 98.0234C266.445 99.1484 266.625 100.5 266.625 102.078V119H258.727V103.086C258.727 102.008 258.602 101.195 258.352 100.648C258.117 100.102 257.773 99.7344 257.32 99.5469C256.867 99.3594 256.312 99.2656 255.656 99.2656C254.969 99.2656 254.352 99.4219 253.805 99.7344C253.258 100.047 252.789 100.484 252.398 101.047C252.023 101.594 251.734 102.242 251.531 102.992C251.344 103.742 251.25 104.562 251.25 105.453ZM265.734 105.453L263.531 105.5C263.531 103.719 263.727 102.078 264.117 100.578C264.523 99.0781 265.125 97.7734 265.922 96.6641C266.734 95.5547 267.742 94.6953 268.945 94.0859C270.148 93.4766 271.547 93.1719 273.141 93.1719C274.297 93.1719 275.359 93.3438 276.328 93.6875C277.297 94.0312 278.133 94.5859 278.836 95.3516C279.539 96.1172 280.086 97.1328 280.477 98.3984C280.867 99.6484 281.062 101.195 281.062 103.039V119H273.141V103.039C273.141 101.992 273.016 101.203 272.766 100.672C272.531 100.125 272.188 99.7578 271.734 99.5703C271.281 99.3672 270.742 99.2656 270.117 99.2656C269.367 99.2656 268.719 99.4219 268.172 99.7344C267.625 100.047 267.164 100.484 266.789 101.047C266.43 101.594 266.164 102.242 265.992 102.992C265.82 103.742 265.734 104.562 265.734 105.453ZM297.867 119.469C295.805 119.469 293.961 119.148 292.336 118.508C290.711 117.852 289.336 116.953 288.211 115.812C287.102 114.672 286.25 113.359 285.656 111.875C285.078 110.391 284.789 108.82 284.789 107.164V106.273C284.789 104.414 285.047 102.695 285.562 101.117C286.078 99.5234 286.844 98.1328 287.859 96.9453C288.875 95.7578 290.148 94.8359 291.68 94.1797C293.211 93.5078 294.992 93.1719 297.023 93.1719C298.82 93.1719 300.43 93.4609 301.852 94.0391C303.273 94.6172 304.477 95.4453 305.461 96.5234C306.461 97.6016 307.219 98.9062 307.734 100.438C308.266 101.969 308.531 103.688 308.531 105.594V108.805H287.812V103.859H300.82V103.25C300.836 102.406 300.688 101.688 300.375 101.094C300.078 100.5 299.641 100.047 299.062 99.7344C298.484 99.4219 297.781 99.2656 296.953 99.2656C296.094 99.2656 295.383 99.4531 294.82 99.8281C294.273 100.203 293.844 100.719 293.531 101.375C293.234 102.016 293.023 102.758 292.898 103.602C292.773 104.445 292.711 105.336 292.711 106.273V107.164C292.711 108.102 292.836 108.953 293.086 109.719C293.352 110.484 293.727 111.141 294.211 111.688C294.711 112.219 295.305 112.633 295.992 112.93C296.695 113.227 297.492 113.375 298.383 113.375C299.461 113.375 300.523 113.172 301.57 112.766C302.617 112.359 303.516 111.688 304.266 110.75L307.852 115.016C307.336 115.75 306.602 116.461 305.648 117.148C304.711 117.836 303.586 118.398 302.273 118.836C300.961 119.258 299.492 119.469 297.867 119.469ZM319.5 99.0547V119H311.602V93.6406H319.008L319.5 99.0547ZM318.562 105.453L316.711 105.5C316.711 103.562 316.945 101.836 317.414 100.32C317.883 98.7891 318.547 97.4922 319.406 96.4297C320.266 95.3672 321.289 94.5625 322.477 94.0156C323.68 93.4531 325.016 93.1719 326.484 93.1719C327.656 93.1719 328.727 93.3438 329.695 93.6875C330.68 94.0312 331.523 94.5859 332.227 95.3516C332.945 96.1172 333.492 97.1328 333.867 98.3984C334.258 99.6484 334.453 101.195 334.453 103.039V119H326.508V103.016C326.508 102 326.367 101.227 326.086 100.695C325.805 100.148 325.398 99.7734 324.867 99.5703C324.336 99.3672 323.688 99.2656 322.922 99.2656C322.109 99.2656 321.422 99.4219 320.859 99.7344C320.297 100.047 319.844 100.484 319.5 101.047C319.172 101.594 318.93 102.242 318.773 102.992C318.633 103.742 318.562 104.562 318.562 105.453ZM352.195 93.6406V99.125H336.914V93.6406H352.195ZM340.125 87.3359H348.023V110.727C348.023 111.398 348.102 111.922 348.258 112.297C348.414 112.656 348.68 112.914 349.055 113.07C349.445 113.211 349.961 113.281 350.602 113.281C351.055 113.281 351.43 113.273 351.727 113.258C352.023 113.227 352.305 113.188 352.57 113.141V118.789C351.898 119.008 351.195 119.172 350.461 119.281C349.727 119.406 348.945 119.469 348.117 119.469C346.43 119.469 344.984 119.203 343.781 118.672C342.594 118.141 341.688 117.305 341.062 116.164C340.438 115.023 340.125 113.539 340.125 111.711V87.3359Z" fill="black"/>
<path d="M1134 0H1348C1356.28 0 1363 6.71573 1363 15V148C1363 156.284 1356.28 163 1348 163H1134V0Z" fill="#52379E"/>
<path d="M1212.5 117.5L1212.5 45.5L1284.5 45.5L1284.5 117.5L1212.5 117.5Z" fill="white" fill-opacity="0.01"/>
<path d="M1221.5 81.5125L1221.5 108.5L1275.5 108.5L1275.5 81.5" stroke="white" stroke-width="7.24" stroke-linecap="round" stroke-linejoin="round"/>
<path d="M1262 68L1248.5 54.5L1235 68" stroke="white" stroke-width="7.24" stroke-linecap="round" stroke-linejoin="round"/>
<path d="M1248.49 93.4999L1248.49 54.5" stroke="white" stroke-width="7.24" stroke-linecap="round" stroke-linejoin="round"/>
</svg>
